<svg width="358" height="276" viewBox="0 0 358 276" fill="none" xmlns="http://www.w3.org/2000/svg">
<g filter="url(#filter0_d_69_1232)">
<path d="M181.016 60C194.942 60 208.614 63.7275 220.613 70.7957C232.612 77.8638 242.5 88.0148 249.251 100.195C256.002 112.375 259.37 126.14 259.005 140.061C258.64 153.982 254.555 167.552 247.175 179.362C239.795 191.171 229.388 200.79 217.035 207.219C204.682 213.649 190.833 216.654 176.926 215.924C163.02 215.195 149.562 210.755 137.95 203.068C126.338 195.381 116.995 184.725 110.892 172.208L126.185 164.751C130.957 174.539 138.262 182.87 147.342 188.881C156.421 194.892 166.944 198.363 177.818 198.934C188.692 199.504 199.521 197.154 209.18 192.127C218.838 187.1 226.976 179.579 232.746 170.345C238.517 161.111 241.711 150.5 241.997 139.615C242.282 128.73 239.649 117.967 234.37 108.443C229.091 98.9194 221.359 90.9821 211.977 85.4555C202.595 79.9288 191.905 77.0142 181.016 77.0142V60Z" fill="#6136C0"/>
<path d="M109.722 169.695C105.29 159.723 103 148.931 103 138.018L120.014 138.018C120.014 146.551 121.805 154.989 125.27 162.787L109.722 169.695Z" fill="#89DCFD"/>
<path d="M103.049 135.258C103.435 124.352 106.104 113.648 110.885 103.838L126.18 111.292C122.441 118.962 120.354 127.332 120.052 135.859L103.049 135.258Z" fill="#64ED9B"/>
<path d="M112.515 100.678C118.964 88.8477 128.366 78.8892 139.806 71.7722C151.246 64.6552 164.335 60.6224 177.797 60.0664L178.499 77.0662C167.973 77.5009 157.739 80.6542 148.793 86.2191C139.848 91.7839 132.496 99.5706 127.454 108.821L112.515 100.678Z" fill="#E9D967"/>
</g>
<path d="M121.874 52.5039C123.283 51.4689 123.587 49.4875 122.552 48.0782C121.517 46.6689 119.535 46.3655 118.126 47.4004C116.717 48.4353 116.413 50.4168 117.448 51.8261C118.483 53.2354 120.465 53.5388 121.874 52.5039ZM136.054 54.8231L136.532 54.4721L136.415 54.3125L136.226 54.2551L136.054 54.8231ZM147.159 68.9602L136.532 54.4721L135.575 55.1742L146.202 69.6624L147.159 68.9602ZM136.226 54.2551L120.172 49.3841L119.828 50.5202L135.881 55.3912L136.226 54.2551Z" fill="#FFD850"/>
<path d="M277.756 130.615C276.347 129.58 276.043 127.599 277.078 126.19C278.113 124.78 280.095 124.477 281.504 125.512C282.913 126.547 283.217 128.528 282.182 129.937C281.147 131.347 279.165 131.65 277.756 130.615ZM263.943 132.118L263.464 131.767L263.589 131.597L263.794 131.544L263.943 132.118ZM253.53 145.312L263.464 131.767L264.421 132.469L254.487 146.015L253.53 145.312ZM263.794 131.544L279.482 127.489L279.779 128.638L264.091 132.693L263.794 131.544Z" fill="#6136C0"/>
<path d="M86.793 47.3735V48.8813H92.7528V47.2311H89.5473C90.9245 46.1744 92.6222 44.6548 92.6222 42.7553C92.6222 41.295 91.7436 40.1434 89.7729 40.1434C88.1939 40.1434 86.8286 41.0457 86.7692 43.147H88.7281C88.7281 42.3279 89.0843 41.853 89.6898 41.853C90.3071 41.853 90.592 42.2566 90.592 42.8858C90.592 44.3461 88.6331 45.8539 86.793 47.3735ZM93.6466 44.5479C93.6466 47.1123 94.5133 48.9644 96.9827 48.9644C99.4521 48.9644 100.319 47.1123 100.319 44.5479C100.319 42.0073 99.4521 40.1553 96.9827 40.1553C94.5133 40.1553 93.6466 42.0073 93.6466 44.5479ZM98.3242 44.5479C98.3242 45.9251 98.1818 47.0648 96.9827 47.0648C95.7836 47.0648 95.6411 45.9251 95.6411 44.5479C95.6411 43.2183 95.7836 42.0548 96.9827 42.0548C98.1818 42.0548 98.3242 43.2183 98.3242 44.5479ZM101.225 42.5178C101.225 43.8356 102.08 44.5242 103.208 44.5242C104.336 44.5242 105.179 43.8356 105.179 42.5178C105.179 41.2 104.336 40.5114 103.208 40.5114C102.08 40.5114 101.225 41.2 101.225 42.5178ZM103.196 41.6986C103.552 41.6986 103.778 41.9479 103.778 42.5178C103.778 43.0758 103.552 43.3251 103.196 43.3251C102.84 43.3251 102.626 43.0758 102.626 42.5178C102.626 41.9479 102.84 41.6986 103.196 41.6986ZM107.327 40.642L102.757 49H104.716L109.286 40.642H107.327ZM106.876 47.1242C106.876 48.442 107.719 49.1306 108.847 49.1306C109.975 49.1306 110.818 48.442 110.818 47.1242C110.818 45.7945 109.975 45.1178 108.847 45.1178C107.719 45.1178 106.876 45.7945 106.876 47.1242ZM108.835 46.305C109.191 46.305 109.417 46.5662 109.417 47.1242C109.417 47.6822 109.191 47.9315 108.835 47.9315C108.479 47.9315 108.265 47.6822 108.265 47.1242C108.265 46.5662 108.479 46.305 108.835 46.305Z" fill="#FED850"/>
<path d="M85.874 109.34C87.2833 108.305 87.5868 106.323 86.5518 104.914C85.5169 103.505 83.5354 103.201 82.1261 104.236C80.7169 105.271 80.4134 107.253 81.4483 108.662C82.4833 110.071 84.4647 110.375 85.874 109.34ZM98.1779 109.573L98.6566 109.222L98.5196 109.035L98.2923 108.991L98.1779 109.573ZM107.072 120.699L98.6566 109.222L97.6992 109.924L106.115 121.401L107.072 120.699ZM98.2923 108.991L84.1145 106.206L83.8857 107.371L98.0635 110.156L98.2923 108.991Z" fill="#64ED9B"/>
<path d="M66.6718 99.3215H61.1275V104.486H63.0864C63.1932 104.082 63.5256 103.774 64.0955 103.774C64.8197 103.774 65.2115 104.189 65.2115 104.973C65.2115 105.721 64.8791 106.279 64.1074 106.279C63.4425 106.279 63.0982 105.875 63.0151 105.424H61.0325C61.1037 106.92 62.2316 108 64.1786 108C66.1019 108 67.1704 106.813 67.1704 104.984C67.1704 103.584 66.4462 102.147 64.5585 102.147C63.8699 102.147 63.2763 102.396 62.9676 102.741V101.102H66.6718V99.3215ZM68.1248 101.518C68.1248 102.836 68.9796 103.524 70.1074 103.524C71.2353 103.524 72.0782 102.836 72.0782 101.518C72.0782 100.2 71.2353 99.5114 70.1074 99.5114C68.9796 99.5114 68.1248 100.2 68.1248 101.518ZM70.0956 100.699C70.4517 100.699 70.6773 100.948 70.6773 101.518C70.6773 102.076 70.4517 102.325 70.0956 102.325C69.7394 102.325 69.5257 102.076 69.5257 101.518C69.5257 100.948 69.7394 100.699 70.0956 100.699ZM74.2271 99.642L69.6563 108H71.6152L76.186 99.642H74.2271ZM73.7759 106.124C73.7759 107.442 74.6189 108.131 75.7467 108.131C76.8746 108.131 77.7175 107.442 77.7175 106.124C77.7175 104.795 76.8746 104.118 75.7467 104.118C74.6189 104.118 73.7759 104.795 73.7759 106.124ZM75.7348 105.305C76.091 105.305 76.3166 105.566 76.3166 106.124C76.3166 106.682 76.091 106.932 75.7348 106.932C75.3787 106.932 75.165 106.682 75.165 106.124C75.165 105.566 75.3787 105.305 75.7348 105.305Z" fill="#64ED9B"/>
<path d="M94.6673 165.315L95.146 165.666L95.0096 165.853L94.7833 165.898L94.6673 165.315ZM79.8738 166.087C81.2831 167.122 81.5866 169.103 80.5516 170.512C79.5167 171.922 77.5353 172.225 76.126 171.19C74.7167 170.155 74.4132 168.174 75.4482 166.764C76.4831 165.355 78.4646 165.052 79.8738 166.087ZM105.071 152.131L95.146 165.666L94.1886 164.964L104.113 151.429L105.071 152.131ZM94.7833 165.898L78.116 169.221L77.8839 168.056L94.5512 164.733L94.7833 165.898Z" fill="#89DCFD"/>
<path d="M58.014 158.321H52.4697V163.486H54.4286C54.5355 163.082 54.8679 162.774 55.4378 162.774C56.162 162.774 56.5538 163.189 56.5538 163.973C56.5538 164.721 56.2213 165.279 55.4497 165.279C54.7848 165.279 54.4405 164.875 54.3574 164.424H52.3748C52.446 165.92 53.5739 167 55.5209 167C57.4442 167 58.5127 165.813 58.5127 163.984C58.5127 162.584 57.7885 161.147 55.9008 161.147C55.2122 161.147 54.6186 161.396 54.3099 161.741V160.102H58.014V158.321ZM59.4671 160.518C59.4671 161.836 60.3219 162.524 61.4497 162.524C62.5776 162.524 63.4205 161.836 63.4205 160.518C63.4205 159.2 62.5776 158.511 61.4497 158.511C60.3219 158.511 59.4671 159.2 59.4671 160.518ZM61.4379 159.699C61.794 159.699 62.0196 159.948 62.0196 160.518C62.0196 161.076 61.794 161.325 61.4379 161.325C61.0817 161.325 60.868 161.076 60.868 160.518C60.868 159.948 61.0817 159.699 61.4379 159.699ZM65.5694 158.642L60.9986 167H62.9575L67.5283 158.642H65.5694ZM65.1182 165.124C65.1182 166.442 65.9611 167.131 67.089 167.131C68.2168 167.131 69.0598 166.442 69.0598 165.124C69.0598 163.795 68.2168 163.118 67.089 163.118C65.9611 163.118 65.1182 163.795 65.1182 165.124ZM67.0771 164.305C67.4333 164.305 67.6589 164.566 67.6589 165.124C67.6589 165.682 67.4333 165.932 67.0771 165.932C66.721 165.932 66.5073 165.682 66.5073 165.124C66.5073 164.566 66.721 164.305 67.0771 164.305Z" fill="#89DCFD"/>
<path d="M292.638 123.345H286.904V125.079H290.596L287.581 132H289.658L292.638 124.853V123.345ZM293.459 127.548C293.459 130.112 294.326 131.964 296.795 131.964C299.265 131.964 300.132 130.112 300.132 127.548C300.132 125.007 299.265 123.155 296.795 123.155C294.326 123.155 293.459 125.007 293.459 127.548ZM298.137 127.548C298.137 128.925 297.995 130.065 296.795 130.065C295.596 130.065 295.454 128.925 295.454 127.548C295.454 126.218 295.596 125.055 296.795 125.055C297.995 125.055 298.137 126.218 298.137 127.548ZM301.038 125.518C301.038 126.836 301.893 127.524 303.021 127.524C304.148 127.524 304.991 126.836 304.991 125.518C304.991 124.2 304.148 123.511 303.021 123.511C301.893 123.511 301.038 124.2 301.038 125.518ZM303.009 124.699C303.365 124.699 303.59 124.948 303.59 125.518C303.59 126.076 303.365 126.325 303.009 126.325C302.652 126.325 302.439 126.076 302.439 125.518C302.439 124.948 302.652 124.699 303.009 124.699ZM307.14 123.642L302.569 132H304.528L309.099 123.642H307.14ZM306.689 130.124C306.689 131.442 307.532 132.131 308.66 132.131C309.788 132.131 310.631 131.442 310.631 130.124C310.631 128.795 309.788 128.118 308.66 128.118C307.532 128.118 306.689 128.795 306.689 130.124ZM308.648 129.305C309.004 129.305 309.23 129.566 309.23 130.124C309.23 130.682 309.004 130.932 308.648 130.932C308.292 130.932 308.078 130.682 308.078 130.124C308.078 129.566 308.292 129.305 308.648 129.305Z" fill="#6136C0"/>
<path d="M294.17 143.008C293.8 141.568 292.58 140.708 290.9 140.708C288.8 140.708 287.33 142.188 287.33 144.288C287.33 146.388 288.81 147.858 290.91 147.858C292.76 147.858 293.93 146.648 294.29 145.438V143.848H290.57V145.108H292.74C292.48 145.898 291.89 146.348 291.04 146.348C289.81 146.348 289.07 145.588 289.07 144.288C289.07 143.068 289.8 142.288 290.9 142.288C291.54 142.288 292.02 142.538 292.28 143.008H294.17ZM294.897 145.008C294.897 146.768 295.987 147.888 297.347 147.888C298.177 147.888 298.767 147.508 299.077 147.018V147.808H300.787V142.228H299.077V143.018C298.777 142.528 298.187 142.148 297.357 142.148C295.987 142.148 294.897 143.248 294.897 145.008ZM299.077 145.018C299.077 145.908 298.507 146.398 297.857 146.398C297.217 146.398 296.637 145.898 296.637 145.008C296.637 144.118 297.217 143.638 297.857 143.638C298.507 143.638 299.077 144.128 299.077 145.018ZM309.714 144.778V147.808H311.414V144.548C311.414 143.048 310.524 142.168 309.144 142.168C308.334 142.168 307.634 142.618 307.264 143.208C306.884 142.538 306.204 142.168 305.364 142.168C304.634 142.168 304.064 142.478 303.734 142.928V142.228H302.024V147.808H303.734V144.778C303.734 144.048 304.154 143.648 304.804 143.648C305.454 143.648 305.874 144.048 305.874 144.778V147.808H307.574V144.778C307.574 144.048 307.994 143.648 308.644 143.648C309.294 143.648 309.714 144.048 309.714 144.778ZM315.07 143.518C315.64 143.518 316.12 143.868 316.12 144.478H313.98C314.08 143.858 314.51 143.518 315.07 143.518ZM317.74 145.958H315.92C315.78 146.258 315.51 146.498 315.03 146.498C314.48 146.498 314.03 146.158 313.97 145.428H317.84C317.86 145.258 317.87 145.088 317.87 144.928C317.87 143.228 316.72 142.148 315.09 142.148C313.43 142.148 312.27 143.248 312.27 145.018C312.27 146.788 313.45 147.888 315.09 147.888C316.48 147.888 317.47 147.048 317.74 145.958ZM318.942 142.068V142.228H318.322V143.648H318.942V147.808H320.652V143.648H321.572V142.228H320.652V142.178C320.652 141.588 320.882 141.388 321.542 141.428V139.978C319.842 139.888 318.942 140.608 318.942 142.068ZM322.376 142.228V147.808H324.086V142.228H322.376ZM323.236 141.648C323.836 141.648 324.246 141.238 324.246 140.728C324.246 140.208 323.836 139.798 323.236 139.798C322.626 139.798 322.216 140.208 322.216 140.728C322.216 141.238 322.626 141.648 323.236 141.648ZM290.26 158.928H289.33V157.168H290.26C290.94 157.168 291.23 157.508 291.23 158.048C291.23 158.588 290.94 158.928 290.26 158.928ZM292.97 158.048C292.97 156.758 292.11 155.788 290.39 155.788H287.62V162.808H289.33V160.288H290.39C292.18 160.288 292.97 159.208 292.97 158.048ZM293.86 155.408V162.808H295.57V155.408H293.86ZM296.469 160.008C296.469 161.768 297.559 162.888 298.919 162.888C299.749 162.888 300.339 162.508 300.649 162.018V162.808H302.359V157.228H300.649V158.018C300.349 157.528 299.759 157.148 298.929 157.148C297.559 157.148 296.469 158.248 296.469 160.008ZM300.649 160.018C300.649 160.908 300.079 161.398 299.429 161.398C298.789 161.398 298.209 160.898 298.209 160.008C298.209 159.118 298.789 158.638 299.429 158.638C300.079 158.638 300.649 159.128 300.649 160.018ZM307.447 157.228L306.167 160.718L304.877 157.228H302.967L305.237 162.618L303.957 165.458H305.797L309.297 157.228H307.447ZM312.375 158.518C312.945 158.518 313.425 158.868 313.425 159.478H311.285C311.385 158.858 311.815 158.518 312.375 158.518ZM315.045 160.958H313.225C313.085 161.258 312.815 161.498 312.335 161.498C311.785 161.498 311.335 161.158 311.275 160.428H315.145C315.165 160.258 315.175 160.088 315.175 159.928C315.175 158.228 314.025 157.148 312.395 157.148C310.735 157.148 309.575 158.248 309.575 160.018C309.575 161.788 310.755 162.888 312.395 162.888C313.785 162.888 314.775 162.048 315.045 160.958ZM317.787 160.218C317.787 159.258 318.257 158.978 319.067 158.978H319.537V157.168C318.787 157.168 318.177 157.568 317.787 158.158V157.228H316.077V162.808H317.787V160.218ZM322.474 155.788V162.808H324.184V158.588L325.764 162.808H327.144L328.714 158.598V162.808H330.424V155.788H328.414L326.464 160.648L324.494 155.788H322.474ZM331.653 157.228V162.808H333.363V157.228H331.653ZM332.513 156.648C333.113 156.648 333.523 156.238 333.523 155.728C333.523 155.208 333.113 154.798 332.513 154.798C331.903 154.798 331.493 155.208 331.493 155.728C331.493 156.238 331.903 156.648 332.513 156.648ZM338.452 159.778V162.808H340.152V159.548C340.152 158.048 339.292 157.168 338.002 157.168C337.252 157.168 336.652 157.498 336.312 157.968V157.228H334.602V162.808H336.312V159.778C336.312 159.018 336.732 158.598 337.382 158.598C338.032 158.598 338.452 159.018 338.452 159.778ZM341.341 157.228V162.808H343.051V157.228H341.341ZM342.201 156.648C342.801 156.648 343.211 156.238 343.211 155.728C343.211 155.208 342.801 154.798 342.201 154.798C341.591 154.798 341.181 155.208 341.181 155.728C341.181 156.238 341.591 156.648 342.201 156.648ZM348.14 159.778V162.808H349.84V159.548C349.84 158.048 348.98 157.168 347.69 157.168C346.94 157.168 346.34 157.498 346 157.968V157.228H344.29V162.808H346V159.778C346 159.018 346.42 158.598 347.07 158.598C347.72 158.598 348.14 159.018 348.14 159.778ZM353.148 157.148C351.778 157.148 350.688 158.248 350.688 160.008C350.688 161.768 351.778 162.888 353.148 162.888C353.968 162.888 354.558 162.498 354.868 162.008V162.798C354.868 163.738 354.358 164.078 353.708 164.078C353.118 164.078 352.698 163.808 352.588 163.388H350.898C351.048 164.718 352.128 165.558 353.788 165.558C355.718 165.558 356.578 164.288 356.578 162.798V157.228H354.868V158.018C354.568 157.518 353.968 157.148 353.148 157.148ZM354.868 160.018C354.868 160.908 354.298 161.398 353.648 161.398C353.008 161.398 352.428 160.898 352.428 160.008C352.428 159.118 353.008 158.638 353.648 158.638C354.298 158.638 354.868 159.128 354.868 160.018Z" fill="white"/>
<path d="M5.56258 57.3773V56.0073H1.26258V63.0273H5.56258V61.6573H2.97258V60.1173H5.26258V58.7973H2.97258V57.3773H5.56258ZM6.33273 60.2373C6.33273 62.0073 7.49273 63.1073 9.13273 63.1073C10.5327 63.1073 11.5227 62.2973 11.8127 61.0073H9.99273C9.84273 61.4173 9.57273 61.6473 9.10273 61.6473C8.49273 61.6473 8.07273 61.1673 8.07273 60.2373C8.07273 59.3073 8.49273 58.8273 9.10273 58.8273C9.57273 58.8273 9.85273 59.0773 9.99273 59.4673H11.8127C11.5227 58.1373 10.5327 57.3673 9.13273 57.3673C7.49273 57.3673 6.33273 58.4773 6.33273 60.2373ZM15.2674 63.1073C16.9074 63.1073 18.1874 62.0073 18.1874 60.2373C18.1874 58.4673 16.9274 57.3673 15.2874 57.3673C13.6574 57.3673 12.3874 58.4673 12.3874 60.2373C12.3874 62.0073 13.6274 63.1073 15.2674 63.1073ZM15.2674 61.6273C14.6474 61.6273 14.1274 61.1773 14.1274 60.2373C14.1274 59.2873 14.6674 58.8473 15.2874 58.8473C15.8874 58.8473 16.4474 59.2873 16.4474 60.2373C16.4474 61.1773 15.8774 61.6273 15.2674 61.6273ZM21.3646 63.1073C22.7646 63.1073 23.6246 62.3773 23.6246 61.4073C23.5946 59.3273 20.5746 59.9573 20.5746 59.0673C20.5746 58.7973 20.7946 58.6373 21.1946 58.6373C21.6746 58.6373 21.9646 58.8873 22.0146 59.2673H23.5946C23.4846 58.1673 22.6846 57.3673 21.2446 57.3673C19.7846 57.3673 18.9746 58.1473 18.9746 59.0973C18.9746 61.1473 22.0146 60.4973 22.0146 61.3973C22.0146 61.6473 21.7846 61.8473 21.3446 61.8473C20.8746 61.8473 20.5246 61.5873 20.4846 61.1973H18.7946C18.8746 62.2773 19.8746 63.1073 21.3646 63.1073ZM28.5208 57.4473L27.2408 60.9373L25.9508 57.4473H24.0408L26.3108 62.8373L25.0308 65.6773H26.8708L30.3708 57.4473H28.5208ZM33.2591 63.1073C34.6591 63.1073 35.5191 62.3773 35.5191 61.4073C35.4891 59.3273 32.4691 59.9573 32.4691 59.0673C32.4691 58.7973 32.6891 58.6373 33.0891 58.6373C33.5691 58.6373 33.8591 58.8873 33.9091 59.2673H35.4891C35.3791 58.1673 34.5791 57.3673 33.1391 57.3673C31.6791 57.3673 30.8691 58.1473 30.8691 59.0973C30.8691 61.1473 33.9091 60.4973 33.9091 61.3973C33.9091 61.6473 33.6791 61.8473 33.2391 61.8473C32.7691 61.8473 32.4191 61.5873 32.3791 61.1973H30.6891C30.7691 62.2773 31.7691 63.1073 33.2591 63.1073ZM36.8353 56.0873V57.4473H36.1553V58.8673H36.8353V61.0873C36.8353 62.5373 37.6453 63.0273 38.8053 63.0273H39.6753V61.5773H39.0653C38.6853 61.5773 38.5453 61.4373 38.5453 61.1073V58.8673H39.6653V57.4473H38.5453V56.0873H36.8353ZM43.0878 58.7373C43.6578 58.7373 44.1378 59.0873 44.1378 59.6973H41.9978C42.0978 59.0773 42.5278 58.7373 43.0878 58.7373ZM45.7578 61.1773H43.9378C43.7978 61.4773 43.5278 61.7173 43.0478 61.7173C42.4978 61.7173 42.0478 61.3773 41.9878 60.6473H45.8578C45.8778 60.4773 45.8878 60.3073 45.8878 60.1473C45.8878 58.4473 44.7378 57.3673 43.1078 57.3673C41.4478 57.3673 40.2878 58.4673 40.2878 60.2373C40.2878 62.0073 41.4678 63.1073 43.1078 63.1073C44.4978 63.1073 45.4878 62.2673 45.7578 61.1773ZM54.4799 59.9973V63.0273H56.1799V59.7673C56.1799 58.2673 55.2899 57.3873 53.9099 57.3873C53.0999 57.3873 52.3999 57.8373 52.0299 58.4273C51.6499 57.7573 50.9699 57.3873 50.1299 57.3873C49.3999 57.3873 48.8299 57.6973 48.4999 58.1473V57.4473H46.7899V63.0273H48.4999V59.9973C48.4999 59.2673 48.9199 58.8673 49.5699 58.8673C50.2199 58.8673 50.6399 59.2673 50.6399 59.9973V63.0273H52.3399V59.9973C52.3399 59.2673 52.7599 58.8673 53.4099 58.8673C54.0599 58.8673 54.4799 59.2673 54.4799 59.9973ZM59.495 56.0073V63.0273H61.205V58.8073L62.785 63.0273H64.165L65.735 58.8173V63.0273H67.445V56.0073H65.435L63.485 60.8673L61.515 56.0073H59.495ZM68.3347 60.2273C68.3347 61.9873 69.4247 63.1073 70.7847 63.1073C71.6147 63.1073 72.2047 62.7273 72.5147 62.2373V63.0273H74.2247V57.4473H72.5147V58.2373C72.2147 57.7473 71.6247 57.3673 70.7947 57.3673C69.4247 57.3673 68.3347 58.4673 68.3347 60.2273ZM72.5147 60.2373C72.5147 61.1273 71.9447 61.6173 71.2947 61.6173C70.6547 61.6173 70.0747 61.1173 70.0747 60.2273C70.0747 59.3373 70.6547 58.8573 71.2947 58.8573C71.9447 58.8573 72.5147 59.3473 72.5147 60.2373ZM77.1718 60.4373C77.1718 59.4773 77.6418 59.1973 78.4518 59.1973H78.9218V57.3873C78.1718 57.3873 77.5618 57.7873 77.1718 58.3773V57.4473H75.4618V63.0273H77.1718V60.4373ZM79.7391 55.6273V63.0273H81.4491V60.6873L83.1491 63.0273H85.2691L82.9291 60.2473L85.2491 57.4473H83.1391L81.4491 59.7173V55.6273H79.7391ZM88.3808 58.7373C88.9508 58.7373 89.4308 59.0873 89.4308 59.6973H87.2908C87.3908 59.0773 87.8208 58.7373 88.3808 58.7373ZM91.0508 61.1773H89.2308C89.0908 61.4773 88.8208 61.7173 88.3408 61.7173C87.7908 61.7173 87.3408 61.3773 87.2808 60.6473H91.1508C91.1708 60.4773 91.1808 60.3073 91.1808 60.1473C91.1808 58.4473 90.0308 57.3673 88.4008 57.3673C86.7408 57.3673 85.5808 58.4673 85.5808 60.2373C85.5808 62.0073 86.7608 63.1073 88.4008 63.1073C89.7908 63.1073 90.7808 62.2673 91.0508 61.1773ZM92.3529 56.0873V57.4473H91.6729V58.8673H92.3529V61.0873C92.3529 62.5373 93.1629 63.0273 94.3229 63.0273H95.1929V61.5773H94.5829C94.2029 61.5773 94.0629 61.4373 94.0629 61.1073V58.8673H95.1829V57.4473H94.0629V56.0873H92.3529ZM96.1454 57.4473V63.0273H97.8554V57.4473H96.1454ZM97.0054 56.8673C97.6054 56.8673 98.0154 56.4573 98.0154 55.9473C98.0154 55.4273 97.6054 55.0173 97.0054 55.0173C96.3954 55.0173 95.9854 55.4273 95.9854 55.9473C95.9854 56.4573 96.3954 56.8673 97.0054 56.8673ZM102.945 59.9973V63.0273H104.645V59.7673C104.645 58.2673 103.785 57.3873 102.495 57.3873C101.745 57.3873 101.145 57.7173 100.805 58.1873V57.4473H99.0946V63.0273H100.805V59.9973C100.805 59.2373 101.225 58.8173 101.875 58.8173C102.525 58.8173 102.945 59.2373 102.945 59.9973ZM107.953 57.3673C106.583 57.3673 105.493 58.4673 105.493 60.2273C105.493 61.9873 106.583 63.1073 107.953 63.1073C108.773 63.1073 109.363 62.7173 109.673 62.2273V63.0173C109.673 63.9573 109.163 64.2973 108.513 64.2973C107.923 64.2973 107.503 64.0273 107.393 63.6073H105.703C105.853 64.9373 106.933 65.7773 108.593 65.7773C110.523 65.7773 111.383 64.5073 111.383 63.0173V57.4473H109.673V58.2373C109.373 57.7373 108.773 57.3673 107.953 57.3673ZM109.673 60.2373C109.673 61.1273 109.103 61.6173 108.453 61.6173C107.813 61.6173 107.233 61.1173 107.233 60.2273C107.233 59.3373 107.813 58.8573 108.453 58.8573C109.103 58.8573 109.673 59.3473 109.673 60.2373Z" fill="white"/>
<path d="M40.0859 113.374H38.3759V120.394H42.3259V119.074H40.0859V113.374ZM45.7815 116.514H44.8515V114.754H45.7815C46.4615 114.754 46.7515 115.094 46.7515 115.634C46.7515 116.174 46.4615 116.514 45.7815 116.514ZM48.4915 115.634C48.4915 114.344 47.6315 113.374 45.9115 113.374H43.1415V120.394H44.8515V117.874H45.9115C47.7015 117.874 48.4915 116.794 48.4915 115.634ZM51.5009 113.374V120.394H53.2109V117.554H55.3509V116.224H53.2109V114.744H56.0709V113.374H51.5009ZM56.6296 117.594C56.6296 119.354 57.7196 120.474 59.0796 120.474C59.9096 120.474 60.4996 120.094 60.8096 119.604V120.394H62.5196V114.814H60.8096V115.604C60.5096 115.114 59.9196 114.734 59.0896 114.734C57.7196 114.734 56.6296 115.834 56.6296 117.594ZM60.8096 117.604C60.8096 118.494 60.2396 118.984 59.5896 118.984C58.9496 118.984 58.3696 118.484 58.3696 117.594C58.3696 116.704 58.9496 116.224 59.5896 116.224C60.2396 116.224 60.8096 116.714 60.8096 117.604ZM65.4667 117.804C65.4667 116.844 65.9367 116.564 66.7467 116.564H67.2167V114.754C66.4667 114.754 65.8567 115.154 65.4667 115.744V114.814H63.7567V120.394H65.4667V117.804ZM75.7241 117.364V120.394H77.4241V117.134C77.4241 115.634 76.5341 114.754 75.1541 114.754C74.3441 114.754 73.6441 115.204 73.2741 115.794C72.8941 115.124 72.2141 114.754 71.3741 114.754C70.6441 114.754 70.0741 115.064 69.7441 115.514V114.814H68.0341V120.394H69.7441V117.364C69.7441 116.634 70.1641 116.234 70.8141 116.234C71.4641 116.234 71.8841 116.634 71.8841 117.364V120.394H73.5841V117.364C73.5841 116.634 74.0041 116.234 74.6541 116.234C75.3041 116.234 75.7241 116.634 75.7241 117.364Z" fill="white"/>
<path d="M23.4195 172.561H21.7095V176.911L18.8495 172.561H17.1395V179.581H18.8495V175.251L21.7095 179.581H23.4195V172.561ZM24.6591 172.561V179.581H26.3691V176.741H28.5091V175.411H26.3691V173.931H29.2291V172.561H24.6591ZM29.7478 172.561V173.931H31.6078V179.581H33.3178V173.931H35.1778V172.561H29.7478ZM40.6952 179.651C42.3352 179.651 43.2552 178.671 43.2552 177.491C43.2552 175.141 39.7852 175.691 39.7852 174.471C39.7852 174.031 40.0952 173.821 40.5052 173.831C40.9652 173.841 41.2852 174.111 41.3152 174.561H43.1652C43.0952 173.221 42.0652 172.461 40.5352 172.461C39.0652 172.461 37.9752 173.201 37.9752 174.531C37.9552 177.021 41.4652 176.321 41.4652 177.621C41.4652 178.031 41.1452 178.281 40.6452 178.281C40.1652 178.281 39.8252 178.021 39.7752 177.481H37.9552C38.0052 178.901 39.1852 179.651 40.6952 179.651ZM44.5775 172.641V174.001H43.8975V175.421H44.5775V177.641C44.5775 179.091 45.3875 179.581 46.5475 179.581H47.4175V178.131H46.8075C46.4275 178.131 46.2875 177.991 46.2875 177.661V175.421H47.4075V174.001H46.2875V172.641H44.5775ZM48.03 176.781C48.03 178.541 49.12 179.661 50.48 179.661C51.31 179.661 51.9 179.281 52.21 178.791V179.581H53.92V174.001H52.21V174.791C51.91 174.301 51.32 173.921 50.49 173.921C49.12 173.921 48.03 175.021 48.03 176.781ZM52.21 176.791C52.21 177.681 51.64 178.171 50.99 178.171C50.35 178.171 49.77 177.671 49.77 176.781C49.77 175.891 50.35 175.411 50.99 175.411C51.64 175.411 52.21 175.901 52.21 176.791ZM55.1571 172.181V179.581H56.8671V177.241L58.5671 179.581H60.6871L58.3471 176.801L60.6671 174.001H58.5571L56.8671 176.271V172.181H55.1571ZM63.7988 175.291C64.3688 175.291 64.8488 175.641 64.8488 176.251H62.7088C62.8088 175.631 63.2388 175.291 63.7988 175.291ZM66.4688 177.731H64.6488C64.5088 178.031 64.2388 178.271 63.7588 178.271C63.2088 178.271 62.7588 177.931 62.6988 177.201H66.5688C66.5888 177.031 66.5987 176.861 66.5987 176.701C66.5987 175.001 65.4488 173.921 63.8188 173.921C62.1588 173.921 60.9988 175.021 60.9988 176.791C60.9988 178.561 62.1788 179.661 63.8188 179.661C65.2088 179.661 66.1988 178.821 66.4688 177.731ZM34.2782 184.561V191.581H35.9882V187.361L37.5682 191.581H38.9482L40.5182 187.371V191.581H42.2282V184.561H40.2182L38.2682 189.421L36.2982 184.561H34.2782ZM43.4579 186.001V191.581H45.1679V186.001H43.4579ZM44.3179 185.421C44.9179 185.421 45.3279 185.011 45.3279 184.501C45.3279 183.981 44.9179 183.571 44.3179 183.571C43.7079 183.571 43.2979 183.981 43.2979 184.501C43.2979 185.011 43.7079 185.421 44.3179 185.421ZM50.2571 188.551V191.581H51.9571V188.321C51.9571 186.821 51.0971 185.941 49.8071 185.941C49.0571 185.941 48.4571 186.271 48.1171 186.741V186.001H46.4071V191.581H48.1171V188.551C48.1171 187.791 48.5371 187.371 49.1871 187.371C49.8371 187.371 50.2571 187.791 50.2571 188.551ZM53.1454 186.001V191.581H54.8554V186.001H53.1454ZM54.0054 185.421C54.6054 185.421 55.0154 185.011 55.0154 184.501C55.0154 183.981 54.6054 183.571 54.0054 183.571C53.3954 183.571 52.9854 183.981 52.9854 184.501C52.9854 185.011 53.3954 185.421 54.0054 185.421ZM59.9446 188.551V191.581H61.6446V188.321C61.6446 186.821 60.7846 185.941 59.4946 185.941C58.7446 185.941 58.1446 186.271 57.8046 186.741V186.001H56.0946V191.581H57.8046V188.551C57.8046 187.791 58.2246 187.371 58.8746 187.371C59.5246 187.371 59.9446 187.791 59.9446 188.551ZM64.9529 185.921C63.5829 185.921 62.4929 187.021 62.4929 188.781C62.4929 190.541 63.5829 191.661 64.9529 191.661C65.7729 191.661 66.3629 191.271 66.6729 190.781V191.571C66.6729 192.511 66.1629 192.851 65.5129 192.851C64.9229 192.851 64.5029 192.581 64.3929 192.161H62.7029C62.8529 193.491 63.9329 194.331 65.5929 194.331C67.5229 194.331 68.3829 193.061 68.3829 191.571V186.001H66.6729V186.791C66.3729 186.291 65.7729 185.921 64.9529 185.921ZM66.6729 188.791C66.6729 189.681 66.1029 190.171 65.4529 190.171C64.8129 190.171 64.2329 189.671 64.2329 188.781C64.2329 187.891 64.8129 187.411 65.4529 187.411C66.1029 187.411 66.6729 187.901 66.6729 188.791Z" fill="white"/>
<defs>
<filter id="filter0_d_69_1232" x="43.6393" y="0.639271" width="274.753" height="274.753" filterUnits="userSpaceOnUse" color-interpolation-filters="sRGB">
<feFlood flood-opacity="0" result="BackgroundImageFix"/>
<feColorMatrix in="SourceAlpha" type="matrix" values="0 0 0 0 0 0 0 0 0 0 0 0 0 0 0 0 0 0 127 0" result="hardAlpha"/>
<feOffset/>
<feGaussianBlur stdDeviation="29.6804"/>
<feComposite in2="hardAlpha" operator="out"/>
<feColorMatrix type="matrix" values="0 0 0 0 0.564706 0 0 0 0 0.921647 0 0 0 0 1 0 0 0 0.5 0"/>
<feBlend mode="normal" in2="BackgroundImageFix" result="effect1_dropShadow_69_1232"/>
<feBlend mode="normal" in="SourceGraphic" in2="effect1_dropShadow_69_1232" result="shape"/>
</filter>
</defs>
</svg>
