<svg width="1349" height="536" viewBox="0 0 1349 536" fill="none" xmlns="http://www.w3.org/2000/svg">
<circle cx="752.5" cy="342.405" r="80.5" fill="#D9D9D9"/>
<circle cx="974.5" cy="181.405" r="80.5" fill="#D9D9D9"/>
<path d="M414.5 243.905C378.5 273.155 297 264.905 297 264.905L366 402.905C366 402.905 381 315.901 430 281.405C479 246.909 552.5 257.905 552.5 257.905L486 115.405C486 115.405 450.5 214.655 414.5 243.905Z" fill="#37CEF0"/>
<path d="M657.175 244.254C618.917 218.026 594 135.905 594 135.905L490.948 242.832C490.948 242.832 578.635 232.545 625.61 269.751C672.584 306.958 682.882 380.559 682.882 380.559L800.675 276.38C800.675 276.38 695.433 270.482 657.175 244.254Z" fill="#177ADA"/>
<path d="M856.293 252.844C820.545 282.401 738.977 274.849 738.977 274.849L798 389.405C798 389.405 823.41 325.124 872.113 290.21C920.817 255.297 993.5 252.844 993.5 252.844L926.692 123.738C926.692 123.738 892.042 223.288 856.293 252.844Z" fill="#8C19E0"/>
<g filter="url(#filter0_d_69_1074)">
<circle cx="314.5" cy="342.405" r="80.5" fill="#EDEDED"/>
</g>
<g filter="url(#filter1_d_69_1074)">
<circle cx="532.5" cy="181.405" r="80.5" fill="#EDEDED"/>
</g>
<g filter="url(#filter2_d_69_1074)">
<circle cx="752.5" cy="342.405" r="80.5" fill="#EDEDED"/>
</g>
<g filter="url(#filter3_d_69_1074)">
<circle cx="974.5" cy="181.405" r="80.5" fill="#EDEDED"/>
</g>
<path d="M287.721 327.9V356.1H303.621V327.9H287.721ZM296.061 363.3H286.281L279.321 359.28V324.72L286.281 320.7H305.061L312.021 324.72V359.28L305.061 363.3L311.841 375H302.661L296.061 363.3ZM344.711 363.3H329.171L322.211 359.28V350.7H330.611V356.1H343.271V344.88H332.771V337.68H343.271V327.9H330.611V333.3H322.211V324.72L329.171 320.7H344.711L351.671 324.72V338.22L346.451 341.22V341.34L351.671 344.34V359.28L344.711 363.3Z" fill="url(#paint0_linear_69_1074)"/>
<path d="M505.982 166.9V195.1H521.882V166.9H505.982ZM514.322 202.3H504.542L497.582 198.28V163.72L504.542 159.7H523.322L530.282 163.72V198.28L523.322 202.3L530.102 214H520.922L514.322 202.3ZM565.673 192.7V202H557.393V192.7H537.473V186.7L558.293 160H565.673V185.92H570.833V192.7H565.673ZM546.773 185.92H557.393V172.36H557.273L546.773 185.8V185.92Z" fill="url(#paint1_linear_69_1074)"/>
<path d="M727.652 327.9V356.1H743.552V327.9H727.652ZM735.992 363.3H726.212L719.252 359.28V324.72L726.212 320.7H744.992L751.952 324.72V359.28L744.992 363.3L751.772 375H742.592L735.992 363.3ZM762.143 335.04V327.18L772.943 321H780.143V355.8H789.743V363H762.143V355.8H771.743V329.52L762.143 335.04Z" fill="url(#paint2_linear_69_1074)"/>
<path d="M947.865 166.9V195.1H963.765V166.9H947.865ZM956.205 202.3H946.425L939.465 198.28V163.72L946.425 159.7H965.205L972.165 163.72V198.28L965.205 202.3L971.985 214H962.805L956.205 202.3ZM990.756 194.8H1010.56V202H982.356V182.26L989.316 178.24H1002.16V167.2H990.756V172.6H982.356V164.02L989.316 160H1003.6L1010.56 164.02V181.42L1003.6 185.44H990.756V194.8Z" fill="url(#paint3_linear_69_1074)"/>
<path d="M2.0465 337.536V360H7.5185V337.536H2.0465ZM23.804 350.304V360H29.244V349.568C29.244 344.768 26.492 341.952 22.364 341.952C19.964 341.952 18.044 343.008 16.956 344.512V342.144H11.484V360H16.956V350.304C16.956 347.872 18.3 346.528 20.38 346.528C22.46 346.528 23.804 347.872 23.804 350.304ZM39.0918 355.616V359.68H55.1558V355.232H46.5158C50.2278 352.384 54.8038 348.288 54.8038 343.168C54.8038 339.232 52.4358 336.128 47.1238 336.128C42.8678 336.128 39.1878 338.56 39.0278 344.224H44.3078C44.3078 342.016 45.2678 340.736 46.8998 340.736C48.5638 340.736 49.3318 341.824 49.3318 343.52C49.3318 347.456 44.0518 351.52 39.0918 355.616ZM57.565 348C57.565 354.912 59.901 359.904 66.557 359.904C73.213 359.904 75.549 354.912 75.549 348C75.549 341.152 73.213 336.16 66.557 336.16C59.901 336.16 57.565 341.152 57.565 348ZM70.173 348C70.173 351.712 69.789 354.784 66.557 354.784C63.325 354.784 62.941 351.712 62.941 348C62.941 344.416 63.325 341.28 66.557 341.28C69.789 341.28 70.173 344.416 70.173 348ZM78.248 355.616V359.68H94.312V355.232H85.672C89.384 352.384 93.96 348.288 93.96 343.168C93.96 339.232 91.592 336.128 86.28 336.128C82.024 336.128 78.344 338.56 78.184 344.224H83.464C83.464 342.016 84.424 340.736 86.056 340.736C87.72 340.736 88.488 341.824 88.488 343.52C88.488 347.456 83.208 351.52 78.248 355.616ZM96.5293 355.616V359.68H112.593V355.232H103.953C107.665 352.384 112.241 348.288 112.241 343.168C112.241 339.232 109.873 336.128 104.561 336.128C100.305 336.128 96.6253 338.56 96.4653 344.224H101.745C101.745 342.016 102.705 340.736 104.337 340.736C106.001 340.736 106.769 341.824 106.769 343.52C106.769 347.456 101.489 351.52 96.5293 355.616ZM132.952 355.232C129.304 355.232 127 352.64 127 348.704C127 344.704 129.304 342.176 132.952 342.176C136.536 342.176 138.872 344.704 138.872 348.704C138.872 352.64 136.536 355.232 132.952 355.232ZM132.952 360.224C133.816 360.224 134.648 360.128 135.448 359.968L138.328 363.84H144.952L140.024 357.92C142.712 355.872 144.44 352.64 144.44 348.704C144.44 341.952 139.352 337.216 132.952 337.216C126.584 337.216 121.4 341.952 121.4 348.704C121.4 355.456 126.584 360.224 132.952 360.224ZM147.195 343.232H152.539C152.635 341.952 153.275 340.672 155.035 340.672C156.507 340.672 157.435 341.536 157.435 343.104C157.435 345.216 155.643 345.664 153.786 345.664H152.763V350.112H153.786C156.635 350.112 157.883 350.944 157.883 353.024C157.883 354.56 156.955 355.648 155.259 355.648C153.243 355.648 152.251 354.432 152.219 352.608H146.907C147.067 357.888 150.587 360.192 155.451 360.192C160.347 360.192 163.163 357.376 163.163 353.44C163.163 350.368 161.562 348.576 159.227 347.808V347.68C160.827 347.136 162.747 345.504 162.747 342.432C162.747 338.912 160.091 336.096 155.163 336.096C150.395 336.096 147.387 338.624 147.195 343.232Z" fill="white"/>
<path d="M2.69641 383.1L6.63641 397.02L9.19641 397L12.2964 386.48L15.2164 397H17.7964L21.9164 383.1H19.4764L16.5764 394.36L13.6764 383.1H11.1164L7.99641 394.42L5.11641 383.1H2.69641ZM28.4369 387.72C30.1369 387.72 31.4769 388.8 31.5169 390.5H25.4169C25.6569 388.76 26.8969 387.72 28.4369 387.72ZM33.5969 393.72H31.1369C30.7169 394.58 29.9369 395.26 28.5369 395.26C26.8569 395.26 25.5569 394.16 25.3969 392.34H33.8169C33.8769 391.96 33.8969 391.6 33.8969 391.22C33.8969 387.98 31.6769 385.8 28.5369 385.8C25.2769 385.8 23.0369 388.02 23.0369 391.48C23.0369 394.94 25.3769 397.18 28.5369 397.18C31.2369 397.18 32.9769 395.64 33.5969 393.72ZM38.4206 387.62V382.2H36.1406V397H38.4206V395.4C39.1406 396.36 40.4406 397.18 42.2606 397.18C45.1606 397.18 47.4406 394.84 47.4406 391.44C47.4406 388.04 45.1806 385.8 42.2606 385.8C40.5206 385.8 39.1406 386.62 38.4206 387.62ZM45.1206 391.44C45.1206 393.82 43.4806 395.2 41.7606 395.2C40.0606 395.2 38.4206 393.86 38.4206 391.48C38.4206 389.12 40.0606 387.78 41.7606 387.78C43.4806 387.78 45.1206 389.06 45.1206 391.44ZM53.6953 397.18C56.2953 397.18 57.9153 395.78 57.9153 393.92C57.7953 389.94 51.5753 391.18 51.5753 388.96C51.5753 388.22 52.2153 387.72 53.4353 387.72C54.6753 387.72 55.4153 388.38 55.4953 389.34H57.7753C57.6553 387.14 56.0153 385.8 53.5153 385.8C50.9153 385.8 49.2753 387.22 49.2753 388.98C49.2753 393.02 55.6753 391.78 55.6753 393.94C55.6753 394.7 54.9753 395.26 53.6553 395.26C52.3953 395.26 51.5353 394.52 51.4553 393.62H49.0953C49.1953 395.62 51.0553 397.18 53.6953 397.18ZM60.3789 385.98V397H62.6589V385.98H60.3789ZM61.5389 384.52C62.3389 384.52 62.9789 383.88 62.9789 383.06C62.9789 382.24 62.3389 381.6 61.5389 381.6C60.7189 381.6 60.0789 382.24 60.0789 383.06C60.0789 383.88 60.7189 384.52 61.5389 384.52ZM66.0123 383.24V385.98H64.7123V387.84H66.0123V393.94C66.0123 396.18 67.2323 397 69.1923 397H70.9923V395.1H69.5923C68.6323 395.1 68.3123 394.76 68.3123 393.94V387.84H70.9923V385.98H68.3123V383.24H66.0123ZM77.7338 387.72C79.4338 387.72 80.7738 388.8 80.8138 390.5H74.7138C74.9538 388.76 76.1938 387.72 77.7338 387.72ZM82.8937 393.72H80.4338C80.0138 394.58 79.2338 395.26 77.8338 395.26C76.1538 395.26 74.8538 394.16 74.6938 392.34H83.1138C83.1738 391.96 83.1938 391.6 83.1938 391.22C83.1938 387.98 80.9738 385.8 77.8338 385.8C74.5738 385.8 72.3338 388.02 72.3338 391.48C72.3338 394.94 74.6738 397.18 77.8338 397.18C80.5338 397.18 82.2738 395.64 82.8937 393.72ZM96.9728 397.14C100.933 397.14 104.073 394.2 104.073 390.02C104.073 385.86 100.933 382.92 96.9728 382.92C93.0528 382.92 89.8728 385.86 89.8728 390.02C89.8728 394.2 93.0528 397.14 96.9728 397.14ZM96.9728 395.16C94.2128 395.16 92.2128 393.16 92.2128 390.02C92.2128 386.88 94.2128 384.92 96.9728 384.92C99.7328 384.92 101.733 386.88 101.733 390.02C101.733 393.16 99.7328 395.16 96.9728 395.16ZM114.136 390.84V397H116.396V390.5C116.396 387.42 114.456 385.8 111.876 385.8C110.556 385.8 109.336 386.34 108.596 387.24V385.98H106.316V397H108.596V390.84C108.596 388.82 109.696 387.78 111.376 387.78C113.036 387.78 114.136 388.82 114.136 390.84ZM119.305 382.2V397H121.585V382.2H119.305ZM124.578 385.98V397H126.858V385.98H124.578ZM125.738 384.52C126.538 384.52 127.178 383.88 127.178 383.06C127.178 382.24 126.538 381.6 125.738 381.6C124.918 381.6 124.278 382.24 124.278 383.06C124.278 383.88 124.918 384.52 125.738 384.52ZM137.672 390.84V397H139.932V390.5C139.932 387.42 137.992 385.8 135.412 385.8C134.092 385.8 132.872 386.34 132.132 387.24V385.98H129.852V397H132.132V390.84C132.132 388.82 133.232 387.78 134.912 387.78C136.572 387.78 137.672 388.82 137.672 390.84ZM147.48 387.72C149.18 387.72 150.52 388.8 150.56 390.5H144.46C144.7 388.76 145.94 387.72 147.48 387.72ZM152.64 393.72H150.18C149.76 394.58 148.98 395.26 147.58 395.26C145.9 395.26 144.6 394.16 144.44 392.34H152.86C152.92 391.96 152.94 391.6 152.94 391.22C152.94 387.98 150.72 385.8 147.58 385.8C144.32 385.8 142.08 388.02 142.08 391.48C142.08 394.94 144.42 397.18 147.58 397.18C150.28 397.18 152.02 395.64 152.64 393.72Z" fill="white"/>
<path d="M450.406 13.536V36H455.878V13.536H450.406ZM472.163 26.304V36H477.603V25.568C477.603 20.768 474.851 17.952 470.723 17.952C468.323 17.952 466.403 19.008 465.315 20.512V18.144H459.843V36H465.315V26.304C465.315 23.872 466.659 22.528 468.739 22.528C470.819 22.528 472.163 23.872 472.163 26.304ZM487.451 31.616V35.68H503.515V31.232H494.875C498.587 28.384 503.163 24.288 503.163 19.168C503.163 15.232 500.795 12.128 495.483 12.128C491.227 12.128 487.547 14.56 487.387 20.224H492.667C492.667 18.016 493.627 16.736 495.259 16.736C496.923 16.736 497.691 17.824 497.691 19.52C497.691 23.456 492.411 27.52 487.451 31.616ZM505.924 24C505.924 30.912 508.26 35.904 514.916 35.904C521.572 35.904 523.908 30.912 523.908 24C523.908 17.152 521.572 12.16 514.916 12.16C508.26 12.16 505.924 17.152 505.924 24ZM518.532 24C518.532 27.712 518.148 30.784 514.916 30.784C511.684 30.784 511.3 27.712 511.3 24C511.3 20.416 511.684 17.28 514.916 17.28C518.148 17.28 518.532 20.416 518.532 24ZM526.607 31.616V35.68H542.671V31.232H534.031C537.743 28.384 542.319 24.288 542.319 19.168C542.319 15.232 539.951 12.128 534.639 12.128C530.383 12.128 526.703 14.56 526.543 20.224H531.823C531.823 18.016 532.783 16.736 534.415 16.736C536.079 16.736 536.847 17.824 536.847 19.52C536.847 23.456 531.567 27.52 526.607 31.616ZM544.889 31.616V35.68H560.953V31.232H552.313C556.025 28.384 560.601 24.288 560.601 19.168C560.601 15.232 558.233 12.128 552.921 12.128C548.665 12.128 544.985 14.56 544.825 20.224H550.105C550.105 18.016 551.065 16.736 552.697 16.736C554.361 16.736 555.129 17.824 555.129 19.52C555.129 23.456 549.849 27.52 544.889 31.616ZM581.311 31.232C577.663 31.232 575.359 28.64 575.359 24.704C575.359 20.704 577.663 18.176 581.311 18.176C584.895 18.176 587.231 20.704 587.231 24.704C587.231 28.64 584.895 31.232 581.311 31.232ZM581.311 36.224C582.175 36.224 583.007 36.128 583.807 35.968L586.687 39.84H593.311L588.383 33.92C591.071 31.872 592.799 28.64 592.799 24.704C592.799 17.952 587.711 13.216 581.311 13.216C574.943 13.216 569.759 17.952 569.759 24.704C569.759 31.456 574.943 36.224 581.311 36.224ZM606.242 31.84V36H611.714V31.84H614.338V27.104H611.714V12.96H605.602L595.49 27.424V31.84H606.242ZM606.626 27.104H601.25L606.626 18.976V27.104Z" fill="white"/>
<path d="M476.353 63.1C475.293 60.38 472.793 58.92 469.893 58.92C465.973 58.92 462.793 61.86 462.793 66.02C462.793 70.2 465.973 73.12 469.893 73.12C473.633 73.12 476.353 70.38 476.773 67.16V65.38H469.113V67.2H474.333C473.993 69.54 472.413 71.06 469.893 71.06C467.133 71.06 465.133 69.08 465.133 66.02C465.133 62.96 467.133 61 469.893 61C471.553 61 472.873 61.7 473.613 63.1H476.353ZM478.261 67.44C478.261 70.84 480.561 73.18 483.421 73.18C485.261 73.18 486.581 72.3 487.281 71.36V73H489.581V61.98H487.281V63.58C486.601 62.68 485.321 61.8 483.461 61.8C480.561 61.8 478.261 64.04 478.261 67.44ZM487.281 67.48C487.281 69.86 485.661 71.2 483.941 71.2C482.241 71.2 480.601 69.82 480.601 67.44C480.601 65.06 482.241 63.78 483.941 63.78C485.661 63.78 487.281 65.12 487.281 67.48ZM508.196 66.84V73H510.456V66.5C510.456 63.42 508.496 61.8 505.916 61.8C504.316 61.8 502.756 62.64 502.076 63.98C501.316 62.54 499.856 61.8 498.116 61.8C496.796 61.8 495.596 62.34 494.856 63.24V61.98H492.576V73H494.856V66.84C494.856 64.82 495.956 63.78 497.636 63.78C499.296 63.78 500.396 64.82 500.396 66.84V73H502.656V66.84C502.656 64.82 503.756 63.78 505.436 63.78C507.096 63.78 508.196 64.82 508.196 66.84ZM517.997 63.72C519.697 63.72 521.037 64.8 521.077 66.5H514.977C515.217 64.76 516.457 63.72 517.997 63.72ZM523.157 69.72H520.697C520.277 70.58 519.497 71.26 518.097 71.26C516.417 71.26 515.117 70.16 514.957 68.34H523.377C523.437 67.96 523.457 67.6 523.457 67.22C523.457 63.98 521.237 61.8 518.097 61.8C514.837 61.8 512.597 64.02 512.597 67.48C512.597 70.94 514.937 73.18 518.097 73.18C520.797 73.18 522.537 71.64 523.157 69.72ZM537.236 73.14C541.196 73.14 544.336 70.2 544.336 66.02C544.336 61.86 541.196 58.92 537.236 58.92C533.316 58.92 530.136 61.86 530.136 66.02C530.136 70.2 533.316 73.14 537.236 73.14ZM537.236 71.16C534.476 71.16 532.476 69.16 532.476 66.02C532.476 62.88 534.476 60.92 537.236 60.92C539.996 60.92 541.996 62.88 541.996 66.02C541.996 69.16 539.996 71.16 537.236 71.16ZM554.4 66.84V73H556.66V66.5C556.66 63.42 554.72 61.8 552.14 61.8C550.82 61.8 549.6 62.34 548.86 63.24V61.98H546.58V73H548.86V66.84C548.86 64.82 549.96 63.78 551.64 63.78C553.3 63.78 554.4 64.82 554.4 66.84ZM559.568 58.2V73H561.848V58.2H559.568ZM564.842 61.98V73H567.122V61.98H564.842ZM566.002 60.52C566.802 60.52 567.442 59.88 567.442 59.06C567.442 58.24 566.802 57.6 566.002 57.6C565.182 57.6 564.542 58.24 564.542 59.06C564.542 59.88 565.182 60.52 566.002 60.52ZM577.935 66.84V73H580.195V66.5C580.195 63.42 578.255 61.8 575.675 61.8C574.355 61.8 573.135 62.34 572.395 63.24V61.98H570.115V73H572.395V66.84C572.395 64.82 573.495 63.78 575.175 63.78C576.835 63.78 577.935 64.82 577.935 66.84ZM587.744 63.72C589.444 63.72 590.784 64.8 590.824 66.5H584.724C584.964 64.76 586.204 63.72 587.744 63.72ZM592.904 69.72H590.444C590.024 70.58 589.244 71.26 587.844 71.26C586.164 71.26 584.864 70.16 584.704 68.34H593.124C593.184 67.96 593.204 67.6 593.204 67.22C593.204 63.98 590.984 61.8 587.844 61.8C584.584 61.8 582.344 64.02 582.344 67.48C582.344 70.94 584.684 73.18 587.844 73.18C590.544 73.18 592.284 71.64 592.904 69.72Z" fill="white"/>
<path d="M1118.05 148.536V171H1123.52V148.536H1118.05ZM1139.8 161.304V171H1145.24V160.568C1145.24 155.768 1142.49 152.952 1138.36 152.952C1135.96 152.952 1134.04 154.008 1132.96 155.512V153.144H1127.48V171H1132.96V161.304C1132.96 158.872 1134.3 157.528 1136.38 157.528C1138.46 157.528 1139.8 158.872 1139.8 161.304ZM1155.09 166.616V170.68H1171.16V166.232H1162.52C1166.23 163.384 1170.8 159.288 1170.8 154.168C1170.8 150.232 1168.44 147.128 1163.12 147.128C1158.87 147.128 1155.19 149.56 1155.03 155.224H1160.31C1160.31 153.016 1161.27 151.736 1162.9 151.736C1164.56 151.736 1165.33 152.824 1165.33 154.52C1165.33 158.456 1160.05 162.52 1155.09 166.616ZM1173.57 159C1173.57 165.912 1175.9 170.904 1182.56 170.904C1189.21 170.904 1191.55 165.912 1191.55 159C1191.55 152.152 1189.21 147.16 1182.56 147.16C1175.9 147.16 1173.57 152.152 1173.57 159ZM1186.17 159C1186.17 162.712 1185.79 165.784 1182.56 165.784C1179.33 165.784 1178.94 162.712 1178.94 159C1178.94 155.416 1179.33 152.28 1182.56 152.28C1185.79 152.28 1186.17 155.416 1186.17 159ZM1194.25 166.616V170.68H1210.31V166.232H1201.67C1205.38 163.384 1209.96 159.288 1209.96 154.168C1209.96 150.232 1207.59 147.128 1202.28 147.128C1198.02 147.128 1194.34 149.56 1194.18 155.224H1199.46C1199.46 153.016 1200.42 151.736 1202.06 151.736C1203.72 151.736 1204.49 152.824 1204.49 154.52C1204.49 158.456 1199.21 162.52 1194.25 166.616ZM1212.91 154.232H1218.26C1218.35 152.952 1218.99 151.672 1220.75 151.672C1222.23 151.672 1223.15 152.536 1223.15 154.104C1223.15 156.216 1221.36 156.664 1219.51 156.664H1218.48V161.112H1219.51C1222.35 161.112 1223.6 161.944 1223.6 164.024C1223.6 165.56 1222.67 166.648 1220.98 166.648C1218.96 166.648 1217.97 165.432 1217.94 163.608H1212.63C1212.79 168.888 1216.31 171.192 1221.17 171.192C1226.07 171.192 1228.88 168.376 1228.88 164.44C1228.88 161.368 1227.28 159.576 1224.95 158.808V158.68C1226.55 158.136 1228.47 156.504 1228.47 153.432C1228.47 149.912 1225.81 147.096 1220.88 147.096C1216.11 147.096 1213.11 149.624 1212.91 154.232ZM1250.05 166.232C1246.4 166.232 1244.09 163.64 1244.09 159.704C1244.09 155.704 1246.4 153.176 1250.05 153.176C1253.63 153.176 1255.97 155.704 1255.97 159.704C1255.97 163.64 1253.63 166.232 1250.05 166.232ZM1250.05 171.224C1250.91 171.224 1251.74 171.128 1252.54 170.968L1255.42 174.84H1262.05L1257.12 168.92C1259.81 166.872 1261.53 163.64 1261.53 159.704C1261.53 152.952 1256.45 148.216 1250.05 148.216C1243.68 148.216 1238.49 152.952 1238.49 159.704C1238.49 166.456 1243.68 171.224 1250.05 171.224ZM1263.9 166.616V170.68H1279.97V166.232H1271.33C1275.04 163.384 1279.62 159.288 1279.62 154.168C1279.62 150.232 1277.25 147.128 1271.94 147.128C1267.68 147.128 1264 149.56 1263.84 155.224H1269.12C1269.12 153.016 1270.08 151.736 1271.71 151.736C1273.38 151.736 1274.14 152.824 1274.14 154.52C1274.14 158.456 1268.86 162.52 1263.9 166.616Z" fill="white"/>
<path d="M1090.58 202.02C1090.58 203.36 1089.64 204.14 1088.1 204.14H1085.02V199.8H1088.02C1089.54 199.8 1090.58 200.64 1090.58 202.02ZM1090.22 195.96C1090.22 197.24 1089.32 197.94 1087.84 197.94H1085.02V193.96H1087.84C1089.32 193.96 1090.22 194.7 1090.22 195.96ZM1092.86 202.26C1092.86 200.6 1091.66 199.12 1090.18 198.86C1091.52 198.38 1092.54 197.36 1092.54 195.68C1092.54 193.72 1090.98 192.1 1088.04 192.1H1082.74V206H1088.3C1091.14 206 1092.86 204.38 1092.86 202.26ZM1105.32 206V194.98H1103.04V201.12C1103.04 203.14 1101.94 204.18 1100.26 204.18C1098.6 204.18 1097.5 203.14 1097.5 201.12V194.98H1095.24V201.46C1095.24 204.54 1097.2 206.16 1099.78 206.16C1101.08 206.16 1102.32 205.62 1103.04 204.68V206H1105.32ZM1108.32 194.98V206H1110.6V194.98H1108.32ZM1109.48 193.52C1110.28 193.52 1110.92 192.88 1110.92 192.06C1110.92 191.24 1110.28 190.6 1109.48 190.6C1108.66 190.6 1108.02 191.24 1108.02 192.06C1108.02 192.88 1108.66 193.52 1109.48 193.52ZM1113.6 191.2V206H1115.88V191.2H1113.6ZM1118.11 200.44C1118.11 203.84 1120.41 206.18 1123.31 206.18C1125.11 206.18 1126.43 205.34 1127.13 204.34V206H1129.43V191.2H1127.13V196.52C1126.29 195.48 1124.77 194.8 1123.33 194.8C1120.41 194.8 1118.11 197.04 1118.11 200.44ZM1127.13 200.48C1127.13 202.86 1125.51 204.2 1123.79 204.2C1122.09 204.2 1120.45 202.82 1120.45 200.44C1120.45 198.06 1122.09 196.78 1123.79 196.78C1125.51 196.78 1127.13 198.12 1127.13 200.48ZM1136.86 200.44C1136.86 203.84 1139.16 206.18 1142.02 206.18C1143.86 206.18 1145.18 205.3 1145.88 204.36V206H1148.18V194.98H1145.88V196.58C1145.2 195.68 1143.92 194.8 1142.06 194.8C1139.16 194.8 1136.86 197.04 1136.86 200.44ZM1145.88 200.48C1145.88 202.86 1144.26 204.2 1142.54 204.2C1140.84 204.2 1139.2 202.82 1139.2 200.44C1139.2 198.06 1140.84 196.78 1142.54 196.78C1144.26 196.78 1145.88 198.12 1145.88 200.48ZM1155.61 200.48C1155.61 203.94 1157.85 206.18 1161.01 206.18C1163.71 206.18 1165.47 204.68 1166.09 202.52H1163.63C1163.21 203.66 1162.37 204.26 1161.01 204.26C1159.17 204.26 1157.95 202.9 1157.95 200.48C1157.95 198.08 1159.17 196.72 1161.01 196.72C1162.37 196.72 1163.25 197.4 1163.63 198.46H1166.09C1165.47 196.14 1163.71 194.8 1161.01 194.8C1157.85 194.8 1155.61 197.04 1155.61 200.48ZM1178.34 206V194.98H1176.06V201.12C1176.06 203.14 1174.96 204.18 1173.28 204.18C1171.62 204.18 1170.52 203.14 1170.52 201.12V194.98H1168.26V201.46C1168.26 204.54 1170.22 206.16 1172.8 206.16C1174.1 206.16 1175.34 205.62 1176.06 204.68V206H1178.34ZM1181.35 191.2V206H1183.63V191.2H1181.35ZM1186.99 192.24V194.98H1185.69V196.84H1186.99V202.94C1186.99 205.18 1188.21 206 1190.17 206H1191.97V204.1H1190.57C1189.61 204.1 1189.29 203.76 1189.29 202.94V196.84H1191.97V194.98H1189.29V192.24H1186.99ZM1204.05 206V194.98H1201.77V201.12C1201.77 203.14 1200.67 204.18 1198.99 204.18C1197.33 204.18 1196.23 203.14 1196.23 201.12V194.98H1193.97V201.46C1193.97 204.54 1195.93 206.16 1198.51 206.16C1199.81 206.16 1201.05 205.62 1201.77 204.68V206H1204.05ZM1209.33 200.2C1209.33 197.86 1210.37 197.16 1212.05 197.16H1212.63V194.8C1211.07 194.8 1209.97 195.48 1209.33 196.58V194.98H1207.05V206H1209.33V200.2ZM1219.37 196.72C1221.07 196.72 1222.41 197.8 1222.45 199.5H1216.35C1216.59 197.76 1217.83 196.72 1219.37 196.72ZM1224.53 202.72H1222.07C1221.65 203.58 1220.87 204.26 1219.47 204.26C1217.79 204.26 1216.49 203.16 1216.33 201.34H1224.75C1224.81 200.96 1224.83 200.6 1224.83 200.22C1224.83 196.98 1222.61 194.8 1219.47 194.8C1216.21 194.8 1213.97 197.02 1213.97 200.48C1213.97 203.94 1216.31 206.18 1219.47 206.18C1222.17 206.18 1223.91 204.64 1224.53 202.72ZM1237.05 206.18C1240.21 206.18 1242.77 203.94 1242.77 200.48C1242.77 197.02 1240.29 194.8 1237.15 194.8C1234.01 194.8 1231.53 197.02 1231.53 200.48C1231.53 203.94 1233.91 206.18 1237.05 206.18ZM1237.05 204.2C1235.33 204.2 1233.85 202.98 1233.85 200.48C1233.85 197.98 1235.39 196.78 1237.11 196.78C1238.81 196.78 1240.43 197.98 1240.43 200.48C1240.43 202.98 1238.75 204.2 1237.05 204.2ZM1245.3 194.2V194.98H1244V196.84H1245.3V206H1247.6V196.84H1249.64V194.98H1247.6V194.2C1247.6 192.94 1248.08 192.46 1249.48 192.46V190.56C1246.6 190.56 1245.3 191.66 1245.3 194.2ZM1257.14 194.2V194.98H1255.84V196.84H1257.14V206H1259.44V196.84H1261.48V194.98H1259.44V194.2C1259.44 192.94 1259.92 192.46 1261.32 192.46V190.56C1258.44 190.56 1257.14 191.66 1257.14 194.2ZM1263.5 194.98V206H1265.78V194.98H1263.5ZM1264.66 193.52C1265.46 193.52 1266.1 192.88 1266.1 192.06C1266.1 191.24 1265.46 190.6 1264.66 190.6C1263.84 190.6 1263.2 191.24 1263.2 192.06C1263.2 192.88 1263.84 193.52 1264.66 193.52ZM1272.77 206.18C1275.37 206.18 1276.99 204.78 1276.99 202.92C1276.87 198.94 1270.65 200.18 1270.65 197.96C1270.65 197.22 1271.29 196.72 1272.51 196.72C1273.75 196.72 1274.49 197.38 1274.57 198.34H1276.85C1276.73 196.14 1275.09 194.8 1272.59 194.8C1269.99 194.8 1268.35 196.22 1268.35 197.98C1268.35 202.02 1274.75 200.78 1274.75 202.94C1274.75 203.7 1274.05 204.26 1272.73 204.26C1271.47 204.26 1270.61 203.52 1270.53 202.62H1268.17C1268.27 204.62 1270.13 206.18 1272.77 206.18ZM1279.46 191.2V206H1281.74V199.84C1281.74 197.82 1282.84 196.78 1284.52 196.78C1286.18 196.78 1287.28 197.82 1287.28 199.84V206H1289.54V199.5C1289.54 196.42 1287.62 194.8 1285.16 194.8C1283.74 194.8 1282.5 195.34 1281.74 196.26V191.2H1279.46ZM1292.45 194.98V206H1294.73V194.98H1292.45ZM1293.61 193.52C1294.41 193.52 1295.05 192.88 1295.05 192.06C1295.05 191.24 1294.41 190.6 1293.61 190.6C1292.79 190.6 1292.15 191.24 1292.15 192.06C1292.15 192.88 1292.79 193.52 1293.61 193.52ZM1305.54 199.84V206H1307.8V199.5C1307.8 196.42 1305.86 194.8 1303.28 194.8C1301.96 194.8 1300.74 195.34 1300 196.24V194.98H1297.72V206H1300V199.84C1300 197.82 1301.1 196.78 1302.78 196.78C1304.44 196.78 1305.54 197.82 1305.54 199.84ZM1315.15 194.8C1312.25 194.8 1309.95 197.04 1309.95 200.44C1309.95 203.84 1312.25 206.18 1315.15 206.18C1316.95 206.18 1318.27 205.28 1318.97 204.34V206.18C1318.97 208.38 1317.65 209.46 1315.89 209.46C1314.31 209.46 1313.09 208.68 1312.75 207.54H1310.49C1310.77 209.98 1312.95 211.44 1315.89 211.44C1319.33 211.44 1321.27 209.18 1321.27 206.18V194.98H1318.97V196.58C1318.29 195.64 1316.95 194.8 1315.15 194.8ZM1318.97 200.48C1318.97 202.86 1317.35 204.2 1315.63 204.2C1313.93 204.2 1312.29 202.82 1312.29 200.44C1312.29 198.06 1313.93 196.78 1315.63 196.78C1317.35 196.78 1318.97 198.12 1318.97 200.48ZM1111.89 228.84V235H1114.15V228.5C1114.15 225.42 1112.19 223.8 1109.61 223.8C1108.01 223.8 1106.45 224.64 1105.77 225.98C1105.01 224.54 1103.55 223.8 1101.81 223.8C1100.49 223.8 1099.29 224.34 1098.55 225.24V223.98H1096.27V235H1098.55V228.84C1098.55 226.82 1099.65 225.78 1101.33 225.78C1102.99 225.78 1104.09 226.82 1104.09 228.84V235H1106.35V228.84C1106.35 226.82 1107.45 225.78 1109.13 225.78C1110.79 225.78 1111.89 226.82 1111.89 228.84ZM1116.29 229.44C1116.29 232.84 1118.59 235.18 1121.45 235.18C1123.29 235.18 1124.61 234.3 1125.31 233.36V235H1127.61V223.98H1125.31V225.58C1124.63 224.68 1123.35 223.8 1121.49 223.8C1118.59 223.8 1116.29 226.04 1116.29 229.44ZM1125.31 229.48C1125.31 231.86 1123.69 233.2 1121.97 233.2C1120.27 233.2 1118.63 231.82 1118.63 229.44C1118.63 227.06 1120.27 225.78 1121.97 225.78C1123.69 225.78 1125.31 227.12 1125.31 229.48ZM1134.61 235.18C1137.21 235.18 1138.83 233.78 1138.83 231.92C1138.71 227.94 1132.49 229.18 1132.49 226.96C1132.49 226.22 1133.13 225.72 1134.35 225.72C1135.59 225.72 1136.33 226.38 1136.41 227.34H1138.69C1138.57 225.14 1136.93 223.8 1134.43 223.8C1131.83 223.8 1130.19 225.22 1130.19 226.98C1130.19 231.02 1136.59 229.78 1136.59 231.94C1136.59 232.7 1135.89 233.26 1134.57 233.26C1133.31 233.26 1132.45 232.52 1132.37 231.62H1130.01C1130.11 233.62 1131.97 235.18 1134.61 235.18ZM1141.65 221.24V223.98H1140.35V225.84H1141.65V231.94C1141.65 234.18 1142.87 235 1144.83 235H1146.63V233.1H1145.23C1144.27 233.1 1143.95 232.76 1143.95 231.94V225.84H1146.63V223.98H1143.95V221.24H1141.65ZM1153.37 225.72C1155.07 225.72 1156.41 226.8 1156.45 228.5H1150.35C1150.59 226.76 1151.83 225.72 1153.37 225.72ZM1158.53 231.72H1156.07C1155.65 232.58 1154.87 233.26 1153.47 233.26C1151.79 233.26 1150.49 232.16 1150.33 230.34H1158.75C1158.81 229.96 1158.83 229.6 1158.83 229.22C1158.83 225.98 1156.61 223.8 1153.47 223.8C1150.21 223.8 1147.97 226.02 1147.97 229.48C1147.97 232.94 1150.31 235.18 1153.47 235.18C1156.17 235.18 1157.91 233.64 1158.53 231.72ZM1163.36 229.2C1163.36 226.86 1164.4 226.16 1166.08 226.16H1166.66V223.8C1165.1 223.8 1164 224.48 1163.36 225.58V223.98H1161.08V235H1163.36V229.2ZM1173.19 228.02C1173.19 232.2 1176.37 235.12 1180.29 235.12C1183.19 235.12 1185.69 233.68 1186.75 230.96H1184.01C1183.27 232.44 1181.95 233.14 1180.29 233.14C1177.53 233.14 1175.53 231.16 1175.53 228.02C1175.53 224.88 1177.53 222.92 1180.29 222.92C1181.95 222.92 1183.27 223.62 1184.01 225.1H1186.75C1185.69 222.38 1183.19 220.92 1180.29 220.92C1176.37 220.92 1173.19 223.86 1173.19 228.02ZM1194.2 235.18C1197.36 235.18 1199.92 232.94 1199.92 229.48C1199.92 226.02 1197.44 223.8 1194.3 223.8C1191.16 223.8 1188.68 226.02 1188.68 229.48C1188.68 232.94 1191.06 235.18 1194.2 235.18ZM1194.2 233.2C1192.48 233.2 1191 231.98 1191 229.48C1191 226.98 1192.54 225.78 1194.26 225.78C1195.96 225.78 1197.58 226.98 1197.58 229.48C1197.58 231.98 1195.9 233.2 1194.2 233.2ZM1217.79 228.84V235H1220.05V228.5C1220.05 225.42 1218.09 223.8 1215.51 223.8C1213.91 223.8 1212.35 224.64 1211.67 225.98C1210.91 224.54 1209.45 223.8 1207.71 223.8C1206.39 223.8 1205.19 224.34 1204.45 225.24V223.98H1202.17V235H1204.45V228.84C1204.45 226.82 1205.55 225.78 1207.23 225.78C1208.89 225.78 1209.99 226.82 1209.99 228.84V235H1212.25V228.84C1212.25 226.82 1213.35 225.78 1215.03 225.78C1216.69 225.78 1217.79 226.82 1217.79 228.84ZM1238.57 228.84V235H1240.83V228.5C1240.83 225.42 1238.87 223.8 1236.29 223.8C1234.69 223.8 1233.13 224.64 1232.45 225.98C1231.69 224.54 1230.23 223.8 1228.49 223.8C1227.17 223.8 1225.97 224.34 1225.23 225.24V223.98H1222.95V235H1225.23V228.84C1225.23 226.82 1226.33 225.78 1228.01 225.78C1229.67 225.78 1230.77 226.82 1230.77 228.84V235H1233.03V228.84C1233.03 226.82 1234.13 225.78 1235.81 225.78C1237.47 225.78 1238.57 226.82 1238.57 228.84ZM1253.71 235V223.98H1251.43V230.12C1251.43 232.14 1250.33 233.18 1248.65 233.18C1246.99 233.18 1245.89 232.14 1245.89 230.12V223.98H1243.63V230.46C1243.63 233.54 1245.59 235.16 1248.17 235.16C1249.47 235.16 1250.71 234.62 1251.43 233.68V235H1253.71ZM1264.54 228.84V235H1266.8V228.5C1266.8 225.42 1264.86 223.8 1262.28 223.8C1260.96 223.8 1259.74 224.34 1259 225.24V223.98H1256.72V235H1259V228.84C1259 226.82 1260.1 225.78 1261.78 225.78C1263.44 225.78 1264.54 226.82 1264.54 228.84ZM1269.71 223.98V235H1271.99V223.98H1269.71ZM1270.87 222.52C1271.67 222.52 1272.31 221.88 1272.31 221.06C1272.31 220.24 1271.67 219.6 1270.87 219.6C1270.05 219.6 1269.41 220.24 1269.41 221.06C1269.41 221.88 1270.05 222.52 1270.87 222.52ZM1275.34 221.24V223.98H1274.04V225.84H1275.34V231.94C1275.34 234.18 1276.56 235 1278.52 235H1280.32V233.1H1278.92C1277.96 233.1 1277.64 232.76 1277.64 231.94V225.84H1280.32V223.98H1277.64V221.24H1275.34ZM1282.43 223.98V235H1284.71V223.98H1282.43ZM1283.59 222.52C1284.39 222.52 1285.03 221.88 1285.03 221.06C1285.03 220.24 1284.39 219.6 1283.59 219.6C1282.77 219.6 1282.13 220.24 1282.13 221.06C1282.13 221.88 1282.77 222.52 1283.59 222.52ZM1292.34 225.72C1294.04 225.72 1295.38 226.8 1295.42 228.5H1289.32C1289.56 226.76 1290.8 225.72 1292.34 225.72ZM1297.5 231.72H1295.04C1294.62 232.58 1293.84 233.26 1292.44 233.26C1290.76 233.26 1289.46 232.16 1289.3 230.34H1297.72C1297.78 229.96 1297.8 229.6 1297.8 229.22C1297.8 225.98 1295.58 223.8 1292.44 223.8C1289.18 223.8 1286.94 226.02 1286.94 229.48C1286.94 232.94 1289.28 235.18 1292.44 235.18C1295.14 235.18 1296.88 233.64 1297.5 231.72ZM1304.04 235.18C1306.64 235.18 1308.26 233.78 1308.26 231.92C1308.14 227.94 1301.92 229.18 1301.92 226.96C1301.92 226.22 1302.56 225.72 1303.78 225.72C1305.02 225.72 1305.76 226.38 1305.84 227.34H1308.12C1308 225.14 1306.36 223.8 1303.86 223.8C1301.26 223.8 1299.62 225.22 1299.62 226.98C1299.62 231.02 1306.02 229.78 1306.02 231.94C1306.02 232.7 1305.32 233.26 1304 233.26C1302.74 233.26 1301.88 232.52 1301.8 231.62H1299.44C1299.54 233.62 1301.4 235.18 1304.04 235.18Z" fill="white"/>
<path d="M676.172 458.536V481H681.644V458.536H676.172ZM697.929 471.304V481H703.369V470.568C703.369 465.768 700.617 462.952 696.489 462.952C694.089 462.952 692.169 464.008 691.081 465.512V463.144H685.609V481H691.081V471.304C691.081 468.872 692.425 467.528 694.505 467.528C696.585 467.528 697.929 468.872 697.929 471.304ZM713.217 476.616V480.68H729.281V476.232H720.641C724.353 473.384 728.929 469.288 728.929 464.168C728.929 460.232 726.561 457.128 721.249 457.128C716.993 457.128 713.313 459.56 713.153 465.224H718.433C718.433 463.016 719.393 461.736 721.025 461.736C722.689 461.736 723.457 462.824 723.457 464.52C723.457 468.456 718.177 472.52 713.217 476.616ZM731.69 469C731.69 475.912 734.026 480.904 740.682 480.904C747.338 480.904 749.674 475.912 749.674 469C749.674 462.152 747.338 457.16 740.682 457.16C734.026 457.16 731.69 462.152 731.69 469ZM744.298 469C744.298 472.712 743.914 475.784 740.682 475.784C737.45 475.784 737.066 472.712 737.066 469C737.066 465.416 737.45 462.28 740.682 462.28C743.914 462.28 744.298 465.416 744.298 469ZM752.373 476.616V480.68H768.437V476.232H759.797C763.509 473.384 768.085 469.288 768.085 464.168C768.085 460.232 765.717 457.128 760.405 457.128C756.149 457.128 752.469 459.56 752.309 465.224H757.589C757.589 463.016 758.549 461.736 760.181 461.736C761.845 461.736 762.613 462.824 762.613 464.52C762.613 468.456 757.333 472.52 752.373 476.616ZM771.038 464.232H776.382C776.478 462.952 777.118 461.672 778.878 461.672C780.35 461.672 781.278 462.536 781.278 464.104C781.278 466.216 779.486 466.664 777.63 466.664H776.606V471.112H777.63C780.478 471.112 781.726 471.944 781.726 474.024C781.726 475.56 780.798 476.648 779.102 476.648C777.086 476.648 776.094 475.432 776.062 473.608H770.75C770.91 478.888 774.43 481.192 779.294 481.192C784.19 481.192 787.006 478.376 787.006 474.44C787.006 471.368 785.406 469.576 783.07 468.808V468.68C784.67 468.136 786.59 466.504 786.59 463.432C786.59 459.912 783.934 457.096 779.006 457.096C774.238 457.096 771.23 459.624 771.038 464.232ZM808.171 476.232C804.523 476.232 802.219 473.64 802.219 469.704C802.219 465.704 804.523 463.176 808.171 463.176C811.755 463.176 814.091 465.704 814.091 469.704C814.091 473.64 811.755 476.232 808.171 476.232ZM808.171 481.224C809.035 481.224 809.867 481.128 810.667 480.968L813.547 484.84H820.171L815.243 478.92C817.931 476.872 819.659 473.64 819.659 469.704C819.659 462.952 814.571 458.216 808.171 458.216C801.803 458.216 796.618 462.952 796.618 469.704C796.618 476.456 801.803 481.224 808.171 481.224ZM824.813 462.728V481H830.509V457.64H821.645V462.728H824.813Z" fill="white"/>
<path d="M653.771 508.1C652.711 505.38 650.211 503.92 647.311 503.92C643.391 503.92 640.211 506.86 640.211 511.02C640.211 515.2 643.391 518.12 647.311 518.12C651.051 518.12 653.771 515.38 654.191 512.16V510.38H646.531V512.2H651.751C651.411 514.54 649.831 516.06 647.311 516.06C644.551 516.06 642.551 514.08 642.551 511.02C642.551 507.96 644.551 506 647.311 506C648.971 506 650.291 506.7 651.031 508.1H653.771ZM655.679 512.44C655.679 515.84 657.979 518.18 660.839 518.18C662.679 518.18 663.999 517.3 664.699 516.36V518H666.999V506.98H664.699V508.58C664.019 507.68 662.739 506.8 660.879 506.8C657.979 506.8 655.679 509.04 655.679 512.44ZM664.699 512.48C664.699 514.86 663.079 516.2 661.359 516.2C659.659 516.2 658.019 514.82 658.019 512.44C658.019 510.06 659.659 508.78 661.359 508.78C663.079 508.78 664.699 510.12 664.699 512.48ZM685.614 511.84V518H687.874V511.5C687.874 508.42 685.914 506.8 683.334 506.8C681.734 506.8 680.174 507.64 679.494 508.98C678.734 507.54 677.274 506.8 675.534 506.8C674.214 506.8 673.014 507.34 672.274 508.24V506.98H669.994V518H672.274V511.84C672.274 509.82 673.374 508.78 675.054 508.78C676.714 508.78 677.814 509.82 677.814 511.84V518H680.074V511.84C680.074 509.82 681.174 508.78 682.854 508.78C684.514 508.78 685.614 509.82 685.614 511.84ZM695.415 508.72C697.115 508.72 698.455 509.8 698.495 511.5H692.395C692.635 509.76 693.875 508.72 695.415 508.72ZM700.575 514.72H698.115C697.695 515.58 696.915 516.26 695.515 516.26C693.835 516.26 692.535 515.16 692.375 513.34H700.795C700.855 512.96 700.875 512.6 700.875 512.22C700.875 508.98 698.655 506.8 695.515 506.8C692.255 506.8 690.015 509.02 690.015 512.48C690.015 515.94 692.355 518.18 695.515 518.18C698.215 518.18 699.955 516.64 700.575 514.72ZM713.114 510.5H710.594V505.96H713.114C714.894 505.96 715.694 506.8 715.694 508.24C715.694 509.64 714.894 510.5 713.114 510.5ZM718.034 508.24C718.034 505.98 716.414 504.1 713.114 504.1H708.314V518H710.594V512.36H713.114C716.734 512.36 718.034 510.22 718.034 508.24ZM729.789 504.1L725.649 515.66L721.529 504.1H719.089L724.329 518H726.969L732.189 504.1H729.789ZM738.896 510.5H736.376V505.96H738.896C740.676 505.96 741.476 506.8 741.476 508.24C741.476 509.64 740.676 510.5 738.896 510.5ZM743.816 508.24C743.816 505.98 742.196 504.1 738.896 504.1H734.096V518H736.376V512.36H738.896C742.516 512.36 743.816 510.22 743.816 508.24ZM750.426 512.44C750.426 515.84 752.726 518.18 755.586 518.18C757.426 518.18 758.746 517.3 759.446 516.36V518H761.746V506.98H759.446V508.58C758.766 507.68 757.486 506.8 755.626 506.8C752.726 506.8 750.426 509.04 750.426 512.44ZM759.446 512.48C759.446 514.86 757.826 516.2 756.106 516.2C754.406 516.2 752.766 514.82 752.766 512.44C752.766 510.06 754.406 508.78 756.106 508.78C757.826 508.78 759.446 510.12 759.446 512.48ZM772.56 511.84V518H774.82V511.5C774.82 508.42 772.88 506.8 770.3 506.8C768.98 506.8 767.76 507.34 767.02 508.24V506.98H764.74V518H767.02V511.84C767.02 509.82 768.12 508.78 769.8 508.78C771.46 508.78 772.56 509.82 772.56 511.84ZM776.969 512.44C776.969 515.84 779.269 518.18 782.169 518.18C783.969 518.18 785.289 517.34 785.989 516.34V518H788.289V503.2H785.989V508.52C785.149 507.48 783.629 506.8 782.189 506.8C779.269 506.8 776.969 509.04 776.969 512.44ZM785.989 512.48C785.989 514.86 784.369 516.2 782.649 516.2C780.949 516.2 779.309 514.82 779.309 512.44C779.309 510.06 780.949 508.78 782.649 508.78C784.369 508.78 785.989 510.12 785.989 512.48ZM802.819 518.14C806.779 518.14 809.919 515.2 809.919 511.02C809.919 506.86 806.779 503.92 802.819 503.92C798.899 503.92 795.719 506.86 795.719 511.02C795.719 515.2 798.899 518.14 802.819 518.14ZM802.819 516.16C800.059 516.16 798.059 514.16 798.059 511.02C798.059 507.88 800.059 505.92 802.819 505.92C805.579 505.92 807.579 507.88 807.579 511.02C807.579 514.16 805.579 516.16 802.819 516.16ZM819.982 511.84V518H822.242V511.5C822.242 508.42 820.302 506.8 817.722 506.8C816.402 506.8 815.182 507.34 814.442 508.24V506.98H812.162V518H814.442V511.84C814.442 509.82 815.542 508.78 817.222 508.78C818.882 508.78 819.982 509.82 819.982 511.84ZM825.15 503.2V518H827.43V503.2H825.15ZM830.424 506.98V518H832.704V506.98H830.424ZM831.584 505.52C832.384 505.52 833.024 504.88 833.024 504.06C833.024 503.24 832.384 502.6 831.584 502.6C830.764 502.6 830.124 503.24 830.124 504.06C830.124 504.88 830.764 505.52 831.584 505.52ZM843.517 511.84V518H845.777V511.5C845.777 508.42 843.837 506.8 841.257 506.8C839.937 506.8 838.717 507.34 837.977 508.24V506.98H835.697V518H837.977V511.84C837.977 509.82 839.077 508.78 840.757 508.78C842.417 508.78 843.517 509.82 843.517 511.84ZM853.326 508.72C855.026 508.72 856.366 509.8 856.406 511.5H850.306C850.546 509.76 851.786 508.72 853.326 508.72ZM858.486 514.72H856.026C855.606 515.58 854.826 516.26 853.426 516.26C851.746 516.26 850.446 515.16 850.286 513.34H858.706C858.766 512.96 858.786 512.6 858.786 512.22C858.786 508.98 856.566 506.8 853.426 506.8C850.166 506.8 847.926 509.02 847.926 512.48C847.926 515.94 850.266 518.18 853.426 518.18C856.126 518.18 857.866 516.64 858.486 514.72Z" fill="white"/>
<circle cx="313" cy="342" r="88.5" stroke="#42D6FA" stroke-width="3" stroke-dasharray="6 6"/>
<circle cx="532" cy="181" r="88.5" stroke="#2486E6" stroke-width="3" stroke-dasharray="6 6"/>
<circle cx="753" cy="342" r="88.5" stroke="#5724E6" stroke-width="3" stroke-dasharray="6 6"/>
<circle cx="975" cy="181" r="88.5" stroke="#B324E6" stroke-width="3" stroke-dasharray="6 6"/>
<defs>
<filter id="filter0_d_69_1074" x="224" y="251.905" width="181" height="181" filterUnits="userSpaceOnUse" color-interpolation-filters="sRGB">
<feFlood flood-opacity="0" result="BackgroundImageFix"/>
<feColorMatrix in="SourceAlpha" type="matrix" values="0 0 0 0 0 0 0 0 0 0 0 0 0 0 0 0 0 0 127 0" result="hardAlpha"/>
<feOffset/>
<feGaussianBlur stdDeviation="5"/>
<feComposite in2="hardAlpha" operator="out"/>
<feColorMatrix type="matrix" values="0 0 0 0 0 0 0 0 0 0 0 0 0 0 0 0 0 0 0.25 0"/>
<feBlend mode="normal" in2="BackgroundImageFix" result="effect1_dropShadow_69_1074"/>
<feBlend mode="normal" in="SourceGraphic" in2="effect1_dropShadow_69_1074" result="shape"/>
</filter>
<filter id="filter1_d_69_1074" x="442" y="90.9048" width="181" height="181" filterUnits="userSpaceOnUse" color-interpolation-filters="sRGB">
<feFlood flood-opacity="0" result="BackgroundImageFix"/>
<feColorMatrix in="SourceAlpha" type="matrix" values="0 0 0 0 0 0 0 0 0 0 0 0 0 0 0 0 0 0 127 0" result="hardAlpha"/>
<feOffset/>
<feGaussianBlur stdDeviation="5"/>
<feComposite in2="hardAlpha" operator="out"/>
<feColorMatrix type="matrix" values="0 0 0 0 0 0 0 0 0 0 0 0 0 0 0 0 0 0 0.25 0"/>
<feBlend mode="normal" in2="BackgroundImageFix" result="effect1_dropShadow_69_1074"/>
<feBlend mode="normal" in="SourceGraphic" in2="effect1_dropShadow_69_1074" result="shape"/>
</filter>
<filter id="filter2_d_69_1074" x="662" y="251.905" width="181" height="181" filterUnits="userSpaceOnUse" color-interpolation-filters="sRGB">
<feFlood flood-opacity="0" result="BackgroundImageFix"/>
<feColorMatrix in="SourceAlpha" type="matrix" values="0 0 0 0 0 0 0 0 0 0 0 0 0 0 0 0 0 0 127 0" result="hardAlpha"/>
<feOffset/>
<feGaussianBlur stdDeviation="5"/>
<feComposite in2="hardAlpha" operator="out"/>
<feColorMatrix type="matrix" values="0 0 0 0 0 0 0 0 0 0 0 0 0 0 0 0 0 0 0.25 0"/>
<feBlend mode="normal" in2="BackgroundImageFix" result="effect1_dropShadow_69_1074"/>
<feBlend mode="normal" in="SourceGraphic" in2="effect1_dropShadow_69_1074" result="shape"/>
</filter>
<filter id="filter3_d_69_1074" x="884" y="90.9048" width="181" height="181" filterUnits="userSpaceOnUse" color-interpolation-filters="sRGB">
<feFlood flood-opacity="0" result="BackgroundImageFix"/>
<feColorMatrix in="SourceAlpha" type="matrix" values="0 0 0 0 0 0 0 0 0 0 0 0 0 0 0 0 0 0 127 0" result="hardAlpha"/>
<feOffset/>
<feGaussianBlur stdDeviation="5"/>
<feComposite in2="hardAlpha" operator="out"/>
<feColorMatrix type="matrix" values="0 0 0 0 0 0 0 0 0 0 0 0 0 0 0 0 0 0 0.25 0"/>
<feBlend mode="normal" in2="BackgroundImageFix" result="effect1_dropShadow_69_1074"/>
<feBlend mode="normal" in="SourceGraphic" in2="effect1_dropShadow_69_1074" result="shape"/>
</filter>
<linearGradient id="paint0_linear_69_1074" x1="282.602" y1="317" x2="318.216" y2="386.081" gradientUnits="userSpaceOnUse">
<stop stop-color="#9E00FF"/>
<stop offset="1" stop-color="#00F0FF"/>
</linearGradient>
<linearGradient id="paint1_linear_69_1074" x1="500.498" y1="156" x2="536.362" y2="224.727" gradientUnits="userSpaceOnUse">
<stop stop-color="#9E00FF"/>
<stop offset="1" stop-color="#00F0FF"/>
</linearGradient>
<linearGradient id="paint2_linear_69_1074" x1="722.084" y1="317" x2="758.957" y2="384.214" gradientUnits="userSpaceOnUse">
<stop stop-color="#9E00FF"/>
<stop offset="1" stop-color="#00F0FF"/>
</linearGradient>
<linearGradient id="paint3_linear_69_1074" x1="942.498" y1="156" x2="978.362" y2="224.727" gradientUnits="userSpaceOnUse">
<stop stop-color="#9E00FF"/>
<stop offset="1" stop-color="#00F0FF"/>
</linearGradient>
</defs>
</svg>
