<svg width="305" height="421" viewBox="0 0 305 421" fill="none" xmlns="http://www.w3.org/2000/svg">
<circle cx="125.764" cy="264.553" r="40.2201" transform="rotate(90 125.764 264.553)" fill="#D9D9D9"/>
<circle cx="206.204" cy="375.471" r="40.2201" transform="rotate(90 206.204 375.471)" fill="#D9D9D9"/>
<path d="M174.977 95.6786C160.363 77.6919 164.485 36.9722 164.485 36.9722L95.5364 71.4465C95.5364 71.4465 139.006 78.941 156.241 103.423C173.476 127.905 167.983 164.627 167.983 164.627L239.18 131.402C239.18 131.402 189.592 113.665 174.977 95.6786Z" fill="#37CEF0"/>
<path d="M174.803 216.926C187.907 197.811 228.937 185.362 228.937 185.362L175.513 133.875C175.513 133.875 180.653 177.685 162.064 201.155C143.474 224.625 106.701 229.77 106.701 229.77L158.752 288.623C158.752 288.623 161.699 236.041 174.803 216.926Z" fill="#177ADA"/>
<path d="M170.511 316.411C155.744 298.55 159.517 257.797 159.517 257.797L102.282 287.286C102.282 287.286 134.398 299.982 151.842 324.315C169.286 348.649 170.511 384.964 170.511 384.964L235.017 351.584C235.017 351.584 185.279 334.272 170.511 316.411Z" fill="#8C19E0"/>
<g filter="url(#filter0_d_262_162)">
<circle cx="125.764" cy="45.7157" r="40.2201" transform="rotate(90 125.764 45.7157)" fill="#EDEDED"/>
</g>
<g filter="url(#filter1_d_262_162)">
<circle cx="206.204" cy="154.635" r="40.2201" transform="rotate(90 206.204 154.635)" fill="#EDEDED"/>
</g>
<g filter="url(#filter2_d_262_162)">
<circle cx="125.764" cy="264.553" r="40.2201" transform="rotate(90 125.764 264.553)" fill="#EDEDED"/>
</g>
<g filter="url(#filter3_d_262_162)">
<circle cx="206.204" cy="375.471" r="40.2201" transform="rotate(90 206.204 375.471)" fill="#EDEDED"/>
</g>
<path d="M111.578 38.944V53.0335H119.522V38.944H111.578ZM115.745 56.6308H110.858L107.381 54.6223V37.3552L110.858 35.3467H120.241L123.719 37.3552V54.6223L120.241 56.6308L123.629 62.4765H119.042L115.745 56.6308ZM140.052 56.6308H132.288L128.81 54.6223V50.3355H133.007V53.0335H139.332V47.4277H134.086V43.8304H139.332V38.944H133.007V41.642H128.81V37.3552L132.288 35.3467H140.052L143.529 37.3552V44.1002L140.921 45.599V45.659L143.529 47.1579V54.6223L140.052 56.6308Z" fill="url(#paint0_linear_262_162)"/>
<path d="M192.898 147.861V161.951H200.843V147.861H192.898ZM197.065 165.548H192.179L188.702 163.54V146.273L192.179 144.264H201.562L205.039 146.273V163.54L201.562 165.548L204.95 171.394H200.363L197.065 165.548ZM222.722 160.752V165.398H218.585V160.752H208.632V157.754L219.034 144.414H222.722V157.364H225.3V160.752H222.722ZM213.279 157.364H218.585V150.589H218.525L213.279 157.304V157.364Z" fill="url(#paint1_linear_262_162)"/>
<path d="M113.293 257.781V271.871H121.237V257.781H113.293ZM117.46 275.468H112.573L109.096 273.46V256.193L112.573 254.184H121.956L125.434 256.193V273.46L121.956 275.468L125.344 281.314H120.757L117.46 275.468ZM130.525 261.349V257.422L135.921 254.334H139.518V271.721H144.315V275.318H130.525V271.721H135.322V258.591L130.525 261.349Z" fill="url(#paint2_linear_262_162)"/>
<path d="M193.34 368.199V382.288H201.284V368.199H193.34ZM197.507 385.886H192.62L189.143 383.877V366.61L192.62 364.602H202.003L205.481 366.61V383.877L202.003 385.886L205.391 391.731H200.804L197.507 385.886ZM214.769 382.139H224.662V385.736H210.572V375.873L214.05 373.865H220.465V368.349H214.769V371.047H210.572V366.76L214.05 364.751H221.185L224.662 366.76V375.453L221.185 377.462H214.769V382.139Z" fill="url(#paint3_linear_262_162)"/>
<circle cx="125.967" cy="44.9666" r="44.2171" transform="rotate(90 125.967 44.9666)" stroke="#42D6FA" stroke-width="1.49889" stroke-dasharray="3 3"/>
<circle cx="206.406" cy="154.385" r="44.2171" transform="rotate(90 206.406 154.385)" stroke="#2486E6" stroke-width="1.49889" stroke-dasharray="3 3"/>
<circle cx="125.967" cy="264.803" r="44.2171" transform="rotate(90 125.967 264.803)" stroke="#5724E6" stroke-width="1.49889" stroke-dasharray="3 3"/>
<circle cx="206.406" cy="375.721" r="44.2171" transform="rotate(90 206.406 375.721)" stroke="#B324E6" stroke-width="1.49889" stroke-dasharray="3 3"/>
<path d="M198.303 16.7763V28H201.037V16.7763H198.303ZM209.174 23.1556V28H211.892V22.7879C211.892 20.3897 210.517 18.9827 208.454 18.9827C207.255 18.9827 206.296 19.5103 205.752 20.2617V19.0786H203.018V28H205.752V23.1556C205.752 21.9405 206.424 21.269 207.463 21.269C208.502 21.269 209.174 21.9405 209.174 23.1556ZM216.812 25.8096V27.8401H224.838V25.6178H220.521C222.376 24.1948 224.662 22.1483 224.662 19.5902C224.662 17.6237 223.479 16.0729 220.825 16.0729C218.699 16.0729 216.86 17.288 216.78 20.1179H219.418C219.418 19.0147 219.898 18.3751 220.713 18.3751C221.544 18.3751 221.928 18.9187 221.928 19.7661C221.928 21.7327 219.29 23.7631 216.812 25.8096ZM226.042 22.0045C226.042 25.4579 227.209 27.952 230.534 27.952C233.86 27.952 235.027 25.4579 235.027 22.0045C235.027 18.583 233.86 16.0888 230.534 16.0888C227.209 16.0888 226.042 18.583 226.042 22.0045ZM232.341 22.0045C232.341 23.8591 232.149 25.3939 230.534 25.3939C228.92 25.3939 228.728 23.8591 228.728 22.0045C228.728 20.2138 228.92 18.6469 230.534 18.6469C232.149 18.6469 232.341 20.2138 232.341 22.0045ZM236.376 25.8096V27.8401H244.402V25.6178H240.085C241.939 24.1948 244.226 22.1483 244.226 19.5902C244.226 17.6237 243.043 16.0729 240.389 16.0729C238.262 16.0729 236.424 17.288 236.344 20.1179H238.982C238.982 19.0147 239.461 18.3751 240.277 18.3751C241.108 18.3751 241.492 18.9187 241.492 19.7661C241.492 21.7327 238.854 23.7631 236.376 25.8096ZM245.509 25.8096V27.8401H253.535V25.6178H249.219C251.073 24.1948 253.36 22.1483 253.36 19.5902C253.36 17.6237 252.176 16.0729 249.522 16.0729C247.396 16.0729 245.557 17.288 245.477 20.1179H248.115C248.115 19.0147 248.595 18.3751 249.411 18.3751C250.242 18.3751 250.626 18.9187 250.626 19.7661C250.626 21.7327 247.988 23.7631 245.509 25.8096ZM263.707 25.6178C261.885 25.6178 260.733 24.3227 260.733 22.3562C260.733 20.3577 261.885 19.0946 263.707 19.0946C265.498 19.0946 266.665 20.3577 266.665 22.3562C266.665 24.3227 265.498 25.6178 263.707 25.6178ZM263.707 28.1119C264.139 28.1119 264.555 28.064 264.954 27.984L266.393 29.9186H269.703L267.241 26.9608C268.584 25.9375 269.447 24.3227 269.447 22.3562C269.447 18.9827 266.905 16.6165 263.707 16.6165C260.526 16.6165 257.935 18.9827 257.935 22.3562C257.935 25.7297 260.526 28.1119 263.707 28.1119ZM270.823 19.6222H273.493C273.541 18.9827 273.861 18.3432 274.74 18.3432C275.476 18.3432 275.939 18.7749 275.939 19.5583C275.939 20.6135 275.044 20.8373 274.117 20.8373H273.605V23.0597H274.117C275.54 23.0597 276.163 23.4754 276.163 24.5146C276.163 25.282 275.7 25.8256 274.852 25.8256C273.845 25.8256 273.349 25.2181 273.333 24.3067H270.679C270.759 26.9448 272.518 28.0959 274.948 28.0959C277.394 28.0959 278.801 26.689 278.801 24.7224C278.801 23.1876 278.002 22.2922 276.835 21.9085V21.8446C277.634 21.5728 278.593 20.7574 278.593 19.2225C278.593 17.4638 277.266 16.0569 274.804 16.0569C272.422 16.0569 270.919 17.3199 270.823 19.6222Z" fill="white"/>
<path d="M198.376 39.5395L200.345 46.4944L201.624 46.4844L203.173 41.2283L204.632 46.4844H205.921L207.979 39.5395H206.76L205.311 45.1654L203.862 39.5395H202.583L201.024 45.1953L199.585 39.5395H198.376ZM211.237 41.8478C212.086 41.8478 212.756 42.3874 212.776 43.2368H209.728C209.848 42.3674 210.467 41.8478 211.237 41.8478ZM213.815 44.8456H212.586C212.376 45.2753 211.986 45.615 211.287 45.615C210.447 45.615 209.798 45.0654 209.718 44.1561H213.925C213.955 43.9662 213.965 43.7864 213.965 43.5965C213.965 41.9777 212.856 40.8885 211.287 40.8885C209.658 40.8885 208.539 41.9977 208.539 43.7264C208.539 45.4551 209.708 46.5743 211.287 46.5743C212.636 46.5743 213.505 45.8049 213.815 44.8456ZM216.225 41.7979V39.0899H215.086V46.4844H216.225V45.685C216.585 46.1646 217.234 46.5743 218.144 46.5743C219.593 46.5743 220.732 45.4052 220.732 43.7064C220.732 42.0077 219.602 40.8885 218.144 40.8885C217.274 40.8885 216.585 41.2982 216.225 41.7979ZM219.573 43.7064C219.573 44.8956 218.753 45.585 217.894 45.585C217.044 45.585 216.225 44.9155 216.225 43.7264C216.225 42.5473 217.044 41.8778 217.894 41.8778C218.753 41.8778 219.573 42.5173 219.573 43.7064ZM223.857 46.5743C225.156 46.5743 225.965 45.8748 225.965 44.9455C225.905 42.957 222.797 43.5765 222.797 42.4674C222.797 42.0976 223.117 41.8478 223.727 41.8478C224.346 41.8478 224.716 42.1776 224.756 42.6572H225.895C225.835 41.558 225.016 40.8885 223.767 40.8885C222.468 40.8885 221.648 41.598 221.648 42.4774C221.648 44.4959 224.846 43.8763 224.846 44.9555C224.846 45.3352 224.496 45.615 223.837 45.615C223.207 45.615 222.777 45.2453 222.738 44.7956H221.558C221.608 45.7949 222.538 46.5743 223.857 46.5743ZM227.196 40.9785V46.4844H228.335V40.9785H227.196ZM227.776 40.249C228.175 40.249 228.495 39.9292 228.495 39.5195C228.495 39.1099 228.175 38.7901 227.776 38.7901C227.366 38.7901 227.046 39.1099 227.046 39.5195C227.046 39.9292 227.366 40.249 227.776 40.249ZM230.011 39.6095V40.9785H229.361V41.9078H230.011V44.9555C230.011 46.0747 230.62 46.4844 231.599 46.4844H232.499V45.5351H231.799C231.32 45.5351 231.16 45.3652 231.16 44.9555V41.9078H232.499V40.9785H231.16V39.6095H230.011ZM235.867 41.8478C236.716 41.8478 237.386 42.3874 237.406 43.2368H234.358C234.478 42.3674 235.098 41.8478 235.867 41.8478ZM238.445 44.8456H237.216C237.006 45.2753 236.616 45.615 235.917 45.615C235.078 45.615 234.428 45.0654 234.348 44.1561H238.555C238.585 43.9662 238.595 43.7864 238.595 43.5965C238.595 41.9777 237.486 40.8885 235.917 40.8885C234.288 40.8885 233.169 41.9977 233.169 43.7264C233.169 45.4551 234.338 46.5743 235.917 46.5743C237.266 46.5743 238.135 45.8049 238.445 44.8456ZM245.479 46.5543C247.458 46.5543 249.027 45.0854 249.027 42.997C249.027 40.9185 247.458 39.4496 245.479 39.4496C243.521 39.4496 241.932 40.9185 241.932 42.997C241.932 45.0854 243.521 46.5543 245.479 46.5543ZM245.479 45.5651C244.1 45.5651 243.101 44.5658 243.101 42.997C243.101 41.4281 244.1 40.4489 245.479 40.4489C246.858 40.4489 247.858 41.4281 247.858 42.997C247.858 44.5658 246.858 45.5651 245.479 45.5651ZM254.055 43.4067V46.4844H255.184V43.2368C255.184 41.6979 254.215 40.8885 252.926 40.8885C252.266 40.8885 251.657 41.1583 251.287 41.608V40.9785H250.148V46.4844H251.287V43.4067C251.287 42.3974 251.836 41.8778 252.676 41.8778C253.505 41.8778 254.055 42.3974 254.055 43.4067ZM256.637 39.0899V46.4844H257.776V39.0899H256.637ZM259.272 40.9785V46.4844H260.411V40.9785H259.272ZM259.851 40.249C260.251 40.249 260.571 39.9292 260.571 39.5195C260.571 39.1099 260.251 38.7901 259.851 38.7901C259.442 38.7901 259.122 39.1099 259.122 39.5195C259.122 39.9292 259.442 40.249 259.851 40.249ZM265.814 43.4067V46.4844H266.943V43.2368C266.943 41.6979 265.974 40.8885 264.684 40.8885C264.025 40.8885 263.415 41.1583 263.046 41.608V40.9785H261.907V46.4844H263.046V43.4067C263.046 42.3974 263.595 41.8778 264.435 41.8778C265.264 41.8778 265.814 42.3974 265.814 43.4067ZM270.714 41.8478C271.564 41.8478 272.233 42.3874 272.253 43.2368H269.205C269.325 42.3674 269.945 41.8478 270.714 41.8478ZM273.292 44.8456H272.063C271.853 45.2753 271.464 45.615 270.764 45.615C269.925 45.615 269.275 45.0654 269.195 44.1561H273.402C273.432 43.9662 273.442 43.7864 273.442 43.5965C273.442 41.9777 272.333 40.8885 270.764 40.8885C269.135 40.8885 268.016 41.9977 268.016 43.7264C268.016 45.4551 269.185 46.5743 270.764 46.5743C272.113 46.5743 272.982 45.8049 273.292 44.8456Z" fill="white"/>
<path d="M28.2332 137.776V149H30.9672V137.776H28.2332ZM39.1039 144.156V149H41.8219V143.788C41.8219 141.39 40.4469 139.983 38.3844 139.983C37.1853 139.983 36.226 140.51 35.6824 141.262V140.079H32.9485V149H35.6824V144.156C35.6824 142.941 36.3539 142.269 37.3932 142.269C38.4324 142.269 39.1039 142.941 39.1039 144.156ZM46.7421 146.81V148.84H54.7681V146.618H50.4513C52.306 145.195 54.5923 143.148 54.5923 140.59C54.5923 138.624 53.4091 137.073 50.7551 137.073C48.6287 137.073 46.7901 138.288 46.7101 141.118H49.3482C49.3482 140.015 49.8278 139.375 50.6432 139.375C51.4746 139.375 51.8583 139.919 51.8583 140.766C51.8583 142.733 49.2203 144.763 46.7421 146.81ZM55.9719 143.004C55.9719 146.458 57.139 148.952 60.4645 148.952C63.7901 148.952 64.9572 146.458 64.9572 143.004C64.9572 139.583 63.7901 137.089 60.4645 137.089C57.139 137.089 55.9719 139.583 55.9719 143.004ZM62.2712 143.004C62.2712 144.859 62.0793 146.394 60.4645 146.394C58.8497 146.394 58.6579 144.859 58.6579 143.004C58.6579 141.214 58.8497 139.647 60.4645 139.647C62.0793 139.647 62.2712 141.214 62.2712 143.004ZM66.3057 146.81V148.84H74.3317V146.618H70.0149C71.8696 145.195 74.1559 143.148 74.1559 140.59C74.1559 138.624 72.9727 137.073 70.3187 137.073C68.1923 137.073 66.3537 138.288 66.2737 141.118H68.9118C68.9118 140.015 69.3914 139.375 70.2068 139.375C71.0382 139.375 71.4219 139.919 71.4219 140.766C71.4219 142.733 68.7839 144.763 66.3057 146.81ZM75.4395 146.81V148.84H83.4656V146.618H79.1488C81.0034 145.195 83.2897 143.148 83.2897 140.59C83.2897 138.624 82.1066 137.073 79.4525 137.073C77.3261 137.073 75.4875 138.288 75.4076 141.118H78.0456C78.0456 140.015 78.5252 139.375 79.3406 139.375C80.172 139.375 80.5557 139.919 80.5557 140.766C80.5557 142.733 77.9177 144.763 75.4395 146.81ZM93.6373 146.618C91.8146 146.618 90.6635 145.323 90.6635 143.356C90.6635 141.358 91.8146 140.095 93.6373 140.095C95.4279 140.095 96.5951 141.358 96.5951 143.356C96.5951 145.323 95.4279 146.618 93.6373 146.618ZM93.6373 149.112C94.0689 149.112 94.4846 149.064 94.8843 148.984L96.3233 150.919H99.6328L97.1706 147.961C98.5136 146.938 99.377 145.323 99.377 143.356C99.377 139.983 96.8349 137.616 93.6373 137.616C90.4556 137.616 87.8655 139.983 87.8655 143.356C87.8655 146.73 90.4556 149.112 93.6373 149.112ZM106.093 146.922V149H108.827V146.922H110.138V144.555H108.827V137.489H105.774L100.721 144.715V146.922H106.093ZM106.285 144.555H103.599L106.285 140.494V144.555Z" fill="white"/>
<path d="M50.1955 162.539C49.6659 161.18 48.4169 160.45 46.9679 160.45C45.0094 160.45 43.4206 161.919 43.4206 163.997C43.4206 166.086 45.0094 167.545 46.9679 167.545C48.8365 167.545 50.1955 166.176 50.4054 164.567V163.678H46.5782V164.587H49.1863C49.0164 165.756 48.227 166.516 46.9679 166.516C45.589 166.516 44.5897 165.526 44.5897 163.997C44.5897 162.469 45.589 161.489 46.9679 161.489C47.7973 161.489 48.4568 161.839 48.8266 162.539H50.1955ZM51.1492 164.707C51.1492 166.406 52.2984 167.575 53.7273 167.575C54.6466 167.575 55.3061 167.135 55.6559 166.665V167.485H56.805V161.979H55.6559V162.778C55.3161 162.329 54.6766 161.889 53.7473 161.889C52.2984 161.889 51.1492 163.008 51.1492 164.707ZM55.6559 164.727C55.6559 165.916 54.8465 166.586 53.9871 166.586C53.1377 166.586 52.3183 165.896 52.3183 164.707C52.3183 163.518 53.1377 162.878 53.9871 162.878C54.8465 162.878 55.6559 163.548 55.6559 164.727ZM66.1054 164.407V167.485H67.2346V164.237C67.2346 162.698 66.2553 161.889 64.9663 161.889C64.1669 161.889 63.3875 162.309 63.0477 162.978C62.668 162.259 61.9385 161.889 61.0692 161.889C60.4097 161.889 59.8101 162.159 59.4404 162.608V161.979H58.3012V167.485H59.4404V164.407C59.4404 163.398 59.99 162.878 60.8294 162.878C61.6587 162.878 62.2083 163.398 62.2083 164.407V167.485H63.3375V164.407C63.3375 163.398 63.8871 162.878 64.7265 162.878C65.5558 162.878 66.1054 163.398 66.1054 164.407ZM71.0024 162.848C71.8518 162.848 72.5213 163.388 72.5413 164.237H69.4935C69.6135 163.368 70.233 162.848 71.0024 162.848ZM73.5805 165.846H72.3514C72.1416 166.276 71.7519 166.616 71.0524 166.616C70.213 166.616 69.5635 166.066 69.4836 165.157H73.6904C73.7204 164.967 73.7304 164.787 73.7304 164.597C73.7304 162.978 72.6212 161.889 71.0524 161.889C69.4236 161.889 68.3044 162.998 68.3044 164.727C68.3044 166.456 69.4736 167.575 71.0524 167.575C72.4014 167.575 73.2707 166.805 73.5805 165.846ZM80.6148 167.555C82.5933 167.555 84.1622 166.086 84.1622 163.997C84.1622 161.919 82.5933 160.45 80.6148 160.45C78.6563 160.45 77.0675 161.919 77.0675 163.997C77.0675 166.086 78.6563 167.555 80.6148 167.555ZM80.6148 166.566C79.2358 166.566 78.2366 165.566 78.2366 163.997C78.2366 162.429 79.2358 161.449 80.6148 161.449C81.9938 161.449 82.9931 162.429 82.9931 163.997C82.9931 165.566 81.9938 166.566 80.6148 166.566ZM89.1902 164.407V167.485H90.3194V164.237C90.3194 162.698 89.3501 161.889 88.0611 161.889C87.4016 161.889 86.792 162.159 86.4223 162.608V161.979H85.2831V167.485H86.4223V164.407C86.4223 163.398 86.9719 162.878 87.8113 162.878C88.6407 162.878 89.1902 163.398 89.1902 164.407ZM91.7725 160.09V167.485H92.9116V160.09H91.7725ZM94.4072 161.979V167.485H95.5464V161.979H94.4072ZM94.9868 161.249C95.3865 161.249 95.7063 160.93 95.7063 160.52C95.7063 160.11 95.3865 159.791 94.9868 159.791C94.5771 159.791 94.2573 160.11 94.2573 160.52C94.2573 160.93 94.5771 161.249 94.9868 161.249ZM100.949 164.407V167.485H102.078V164.237C102.078 162.698 101.109 161.889 99.8199 161.889C99.1604 161.889 98.5509 162.159 98.1811 162.608V161.979H97.042V167.485H98.1811V164.407C98.1811 163.398 98.7307 162.878 99.5701 162.878C100.399 162.878 100.949 163.398 100.949 164.407ZM105.85 162.848C106.699 162.848 107.368 163.388 107.388 164.237H104.341C104.461 163.368 105.08 162.848 105.85 162.848ZM108.428 165.846H107.199C106.989 166.276 106.599 166.616 105.9 166.616C105.06 166.616 104.411 166.066 104.331 165.157H108.538C108.568 164.967 108.578 164.787 108.578 164.597C108.578 162.978 107.468 161.889 105.9 161.889C104.271 161.889 103.152 162.998 103.152 164.727C103.152 166.456 104.321 167.575 105.9 167.575C107.249 167.575 108.118 166.805 108.428 165.846Z" fill="white"/>
<path d="M192.364 248.776V260H195.098V248.776H192.364ZM203.235 255.156V260H205.953V254.788C205.953 252.39 204.578 250.983 202.516 250.983C201.317 250.983 200.357 251.51 199.814 252.262V251.079H197.08V260H199.814V255.156C199.814 253.941 200.485 253.269 201.524 253.269C202.564 253.269 203.235 253.941 203.235 255.156ZM210.873 257.81V259.84H218.899V257.618H214.583C216.437 256.195 218.723 254.148 218.723 251.59C218.723 249.624 217.54 248.073 214.886 248.073C212.76 248.073 210.921 249.288 210.841 252.118H213.479C213.479 251.015 213.959 250.375 214.774 250.375C215.606 250.375 215.99 250.919 215.99 251.766C215.99 253.733 213.351 255.763 210.873 257.81ZM220.103 254.004C220.103 257.458 221.27 259.952 224.596 259.952C227.921 259.952 229.088 257.458 229.088 254.004C229.088 250.583 227.921 248.089 224.596 248.089C221.27 248.089 220.103 250.583 220.103 254.004ZM226.402 254.004C226.402 255.859 226.211 257.394 224.596 257.394C222.981 257.394 222.789 255.859 222.789 254.004C222.789 252.214 222.981 250.647 224.596 250.647C226.211 250.647 226.402 252.214 226.402 254.004ZM230.437 257.81V259.84H238.463V257.618H234.146C236.001 256.195 238.287 254.148 238.287 251.59C238.287 249.624 237.104 248.073 234.45 248.073C232.324 248.073 230.485 249.288 230.405 252.118H233.043C233.043 251.015 233.523 250.375 234.338 250.375C235.169 250.375 235.553 250.919 235.553 251.766C235.553 253.733 232.915 255.763 230.437 257.81ZM239.763 251.622H242.433C242.481 250.983 242.8 250.343 243.68 250.343C244.415 250.343 244.879 250.775 244.879 251.558C244.879 252.613 243.983 252.837 243.056 252.837H242.545V255.06H243.056C244.479 255.06 245.103 255.475 245.103 256.515C245.103 257.282 244.639 257.826 243.792 257.826C242.784 257.826 242.289 257.218 242.273 256.307H239.619C239.699 258.945 241.457 260.096 243.888 260.096C246.334 260.096 247.741 258.689 247.741 256.722C247.741 255.188 246.941 254.292 245.774 253.909V253.845C246.574 253.573 247.533 252.757 247.533 251.223C247.533 249.464 246.206 248.057 243.744 248.057C241.361 248.057 239.859 249.32 239.763 251.622ZM258.315 257.618C256.492 257.618 255.341 256.323 255.341 254.356C255.341 252.358 256.492 251.095 258.315 251.095C260.106 251.095 261.273 252.358 261.273 254.356C261.273 256.323 260.106 257.618 258.315 257.618ZM258.315 260.112C258.747 260.112 259.162 260.064 259.562 259.984L261.001 261.919H264.311L261.848 258.961C263.191 257.938 264.055 256.323 264.055 254.356C264.055 250.983 261.513 248.616 258.315 248.616C255.133 248.616 252.543 250.983 252.543 254.356C252.543 257.73 255.133 260.112 258.315 260.112ZM266.63 250.871V260H269.476V248.329H265.047V250.871H266.63Z" fill="white"/>
<path d="M202.171 273.539C201.641 272.18 200.392 271.45 198.943 271.45C196.985 271.45 195.396 272.919 195.396 274.997C195.396 277.086 196.985 278.545 198.943 278.545C200.812 278.545 202.171 277.176 202.381 275.567V274.678H198.554V275.587H201.162C200.992 276.756 200.202 277.516 198.943 277.516C197.564 277.516 196.565 276.526 196.565 274.997C196.565 273.469 197.564 272.489 198.943 272.489C199.773 272.489 200.432 272.839 200.802 273.539H202.171ZM203.125 275.707C203.125 277.406 204.274 278.575 205.703 278.575C206.622 278.575 207.281 278.135 207.631 277.665V278.485H208.78V272.979H207.631V273.778C207.291 273.329 206.652 272.889 205.723 272.889C204.274 272.889 203.125 274.008 203.125 275.707ZM207.631 275.727C207.631 276.916 206.822 277.586 205.962 277.586C205.113 277.586 204.294 276.896 204.294 275.707C204.294 274.518 205.113 273.878 205.962 273.878C206.822 273.878 207.631 274.548 207.631 275.727ZM218.081 275.407V278.485H219.21V275.237C219.21 273.698 218.231 272.889 216.942 272.889C216.142 272.889 215.363 273.309 215.023 273.978C214.643 273.259 213.914 272.889 213.045 272.889C212.385 272.889 211.785 273.159 211.416 273.608V272.979H210.277V278.485H211.416V275.407C211.416 274.398 211.965 273.878 212.805 273.878C213.634 273.878 214.184 274.398 214.184 275.407V278.485H215.313V275.407C215.313 274.398 215.862 273.878 216.702 273.878C217.531 273.878 218.081 274.398 218.081 275.407ZM222.978 273.848C223.827 273.848 224.497 274.388 224.517 275.237H221.469C221.589 274.368 222.208 273.848 222.978 273.848ZM225.556 276.846H224.327C224.117 277.276 223.727 277.616 223.028 277.616C222.188 277.616 221.539 277.066 221.459 276.157H225.666C225.696 275.967 225.706 275.787 225.706 275.597C225.706 273.978 224.597 272.889 223.028 272.889C221.399 272.889 220.28 273.998 220.28 275.727C220.28 277.456 221.449 278.575 223.028 278.575C224.377 278.575 225.246 277.805 225.556 276.846ZM231.821 274.738H230.562V272.469H231.821C232.71 272.469 233.11 272.889 233.11 273.608C233.11 274.308 232.71 274.738 231.821 274.738ZM234.279 273.608C234.279 272.479 233.47 271.54 231.821 271.54H229.423V278.485H230.562V275.667H231.821C233.629 275.667 234.279 274.598 234.279 273.608ZM240.152 271.54L238.083 277.316L236.025 271.54H234.806L237.424 278.485H238.743L241.351 271.54H240.152ZM244.702 274.738H243.443V272.469H244.702C245.591 272.469 245.991 272.889 245.991 273.608C245.991 274.308 245.591 274.738 244.702 274.738ZM247.16 273.608C247.16 272.479 246.351 271.54 244.702 271.54H242.304V278.485H243.443V275.667H244.702C246.51 275.667 247.16 274.598 247.16 273.608ZM250.462 275.707C250.462 277.406 251.612 278.575 253.041 278.575C253.96 278.575 254.619 278.135 254.969 277.665V278.485H256.118V272.979H254.969V273.778C254.629 273.329 253.99 272.889 253.061 272.889C251.612 272.889 250.462 274.008 250.462 275.707ZM254.969 275.727C254.969 276.916 254.16 277.586 253.3 277.586C252.451 277.586 251.632 276.896 251.632 275.707C251.632 274.518 252.451 273.878 253.3 273.878C254.16 273.878 254.969 274.548 254.969 275.727ZM261.522 275.407V278.485H262.651V275.237C262.651 273.698 261.681 272.889 260.392 272.889C259.733 272.889 259.123 273.159 258.754 273.608V272.979H257.614V278.485H258.754V275.407C258.754 274.398 259.303 273.878 260.143 273.878C260.972 273.878 261.522 274.398 261.522 275.407ZM263.724 275.707C263.724 277.406 264.873 278.575 266.322 278.575C267.221 278.575 267.881 278.155 268.231 277.655V278.485H269.38V271.09H268.231V273.748C267.811 273.229 267.052 272.889 266.332 272.889C264.873 272.889 263.724 274.008 263.724 275.707ZM268.231 275.727C268.231 276.916 267.421 277.586 266.562 277.586C265.713 277.586 264.893 276.896 264.893 275.707C264.893 274.518 265.713 273.878 266.562 273.878C267.421 273.878 268.231 274.548 268.231 275.727ZM276.639 278.555C278.618 278.555 280.187 277.086 280.187 274.997C280.187 272.919 278.618 271.45 276.639 271.45C274.681 271.45 273.092 272.919 273.092 274.997C273.092 277.086 274.681 278.555 276.639 278.555ZM276.639 277.566C275.26 277.566 274.261 276.566 274.261 274.997C274.261 273.429 275.26 272.449 276.639 272.449C278.018 272.449 279.018 273.429 279.018 274.997C279.018 276.566 278.018 277.566 276.639 277.566ZM285.215 275.407V278.485H286.344V275.237C286.344 273.698 285.375 272.889 284.086 272.889C283.426 272.889 282.817 273.159 282.447 273.608V272.979H281.308V278.485H282.447V275.407C282.447 274.398 282.997 273.878 283.836 273.878C284.665 273.878 285.215 274.398 285.215 275.407ZM287.797 271.09V278.485H288.936V271.09H287.797ZM290.432 272.979V278.485H291.571V272.979H290.432ZM291.011 272.249C291.411 272.249 291.731 271.93 291.731 271.52C291.731 271.11 291.411 270.791 291.011 270.791C290.602 270.791 290.282 271.11 290.282 271.52C290.282 271.93 290.602 272.249 291.011 272.249ZM296.974 275.407V278.485H298.103V275.237C298.103 273.698 297.134 272.889 295.845 272.889C295.185 272.889 294.576 273.159 294.206 273.608V272.979H293.067V278.485H294.206V275.407C294.206 274.398 294.755 273.878 295.595 273.878C296.424 273.878 296.974 274.398 296.974 275.407ZM301.874 273.848C302.724 273.848 303.393 274.388 303.413 275.237H300.365C300.485 274.368 301.105 273.848 301.874 273.848ZM304.452 276.846H303.223C303.013 277.276 302.624 277.616 301.924 277.616C301.085 277.616 300.435 277.066 300.355 276.157H304.562C304.592 275.967 304.602 275.787 304.602 275.597C304.602 273.978 303.493 272.889 301.924 272.889C300.295 272.889 299.176 273.998 299.176 275.727C299.176 277.456 300.345 278.575 301.924 278.575C303.273 278.575 304.143 277.805 304.452 276.846Z" fill="white"/>
<path d="M39.3031 369.776V381H42.0371V369.776H39.3031ZM50.1738 376.156V381H52.8918V375.788C52.8918 373.39 51.5168 371.983 49.4543 371.983C48.2552 371.983 47.2959 372.51 46.7523 373.262V372.079H44.0184V381H46.7523V376.156C46.7523 374.941 47.4238 374.269 48.4631 374.269C49.5023 374.269 50.1738 374.941 50.1738 376.156ZM57.812 378.81V380.84H65.838V378.618H61.5212C63.3759 377.195 65.6622 375.148 65.6622 372.59C65.6622 370.624 64.479 369.073 61.825 369.073C59.6986 369.073 57.86 370.288 57.78 373.118H60.4181C60.4181 372.015 60.8977 371.375 61.7131 371.375C62.5445 371.375 62.9282 371.919 62.9282 372.766C62.9282 374.733 60.2901 376.763 57.812 378.81ZM67.0418 375.004C67.0418 378.458 68.2089 380.952 71.5344 380.952C74.86 380.952 76.0271 378.458 76.0271 375.004C76.0271 371.583 74.86 369.089 71.5344 369.089C68.2089 369.089 67.0418 371.583 67.0418 375.004ZM73.3411 375.004C73.3411 376.859 73.1492 378.394 71.5344 378.394C69.9196 378.394 69.7278 376.859 69.7278 375.004C69.7278 373.214 69.9196 371.647 71.5344 371.647C73.1492 371.647 73.3411 373.214 73.3411 375.004ZM77.3756 378.81V380.84H85.4016V378.618H81.0848C82.9394 377.195 85.2257 375.148 85.2257 372.59C85.2257 370.624 84.0426 369.073 81.3886 369.073C79.2622 369.073 77.4235 370.288 77.3436 373.118H79.9816C79.9816 372.015 80.4613 371.375 81.2767 371.375C82.1081 371.375 82.4918 371.919 82.4918 372.766C82.4918 374.733 79.8537 376.763 77.3756 378.81ZM86.7013 372.622H89.3713C89.4193 371.983 89.739 371.343 90.6184 371.343C91.3538 371.343 91.8175 371.775 91.8175 372.558C91.8175 373.613 90.9221 373.837 89.9948 373.837H89.4832V376.06H89.9948C91.4178 376.06 92.0413 376.475 92.0413 377.515C92.0413 378.282 91.5777 378.826 90.7303 378.826C89.723 378.826 89.2274 378.218 89.2114 377.307H86.5574C86.6373 379.945 88.396 381.096 90.8262 381.096C93.2724 381.096 94.6794 379.689 94.6794 377.722C94.6794 376.188 93.8799 375.292 92.7128 374.909V374.845C93.5122 374.573 94.4715 373.757 94.4715 372.223C94.4715 370.464 93.1445 369.057 90.6823 369.057C88.3001 369.057 86.7972 370.32 86.7013 372.622ZM105.254 378.618C103.431 378.618 102.28 377.323 102.28 375.356C102.28 373.358 103.431 372.095 105.254 372.095C107.044 372.095 108.211 373.358 108.211 375.356C108.211 377.323 107.044 378.618 105.254 378.618ZM105.254 381.112C105.685 381.112 106.101 381.064 106.501 380.984L107.94 382.919H111.249L108.787 379.961C110.13 378.938 110.993 377.323 110.993 375.356C110.993 371.983 108.451 369.616 105.254 369.616C102.072 369.616 99.4819 371.983 99.4819 375.356C99.4819 378.73 102.072 381.112 105.254 381.112ZM112.178 378.81V380.84H120.204V378.618H115.887C117.742 377.195 120.028 375.148 120.028 372.59C120.028 370.624 118.845 369.073 116.191 369.073C114.064 369.073 112.226 370.288 112.146 373.118H114.784C114.784 372.015 115.264 371.375 116.079 371.375C116.91 371.375 117.294 371.919 117.294 372.766C117.294 374.733 114.656 376.763 112.178 378.81Z" fill="white"/>
<path d="M4.99446 397.011C4.99446 397.681 4.52481 398.071 3.75538 398.071H2.21652V395.902H3.71541C4.47485 395.902 4.99446 396.322 4.99446 397.011ZM4.81459 393.984C4.81459 394.623 4.36493 394.973 3.62548 394.973H2.21652V392.984H3.62548C4.36493 392.984 4.81459 393.354 4.81459 393.984ZM6.13361 397.131C6.13361 396.302 5.53406 395.563 4.79461 395.433C5.46411 395.193 5.97373 394.683 5.97373 393.844C5.97373 392.865 5.19431 392.055 3.7254 392.055H1.07737V399H3.85531C5.27425 399 6.13361 398.191 6.13361 397.131ZM12.3578 399V393.494H11.2187V396.562C11.2187 397.571 10.6691 398.091 9.8297 398.091C9.00031 398.091 8.45072 397.571 8.45072 396.562V393.494H7.32156V396.732C7.32156 398.271 8.30083 399.08 9.58987 399.08C10.2394 399.08 10.8589 398.81 11.2187 398.34V399H12.3578ZM13.8608 393.494V399H15V393.494H13.8608ZM14.4404 392.765C14.8401 392.765 15.1599 392.445 15.1599 392.035C15.1599 391.625 14.8401 391.306 14.4404 391.306C14.0307 391.306 13.711 391.625 13.711 392.035C13.711 392.445 14.0307 392.765 14.4404 392.765ZM16.4956 391.605V399H17.6348V391.605H16.4956ZM18.7506 396.222C18.7506 397.921 19.8998 399.09 21.3487 399.09C22.248 399.09 22.9076 398.67 23.2573 398.171V399H24.4064V391.605H23.2573V394.264C22.8376 393.744 22.0782 393.404 21.3587 393.404C19.8998 393.404 18.7506 394.523 18.7506 396.222ZM23.2573 396.242C23.2573 397.431 22.4479 398.101 21.5885 398.101C20.7392 398.101 19.9198 397.411 19.9198 396.222C19.9198 395.033 20.7392 394.393 21.5885 394.393C22.4479 394.393 23.2573 395.063 23.2573 396.242ZM28.1187 396.222C28.1187 397.921 29.2678 399.09 30.6968 399.09C31.6161 399.09 32.2756 398.65 32.6253 398.181V399H33.7745V393.494H32.6253V394.293C32.2856 393.844 31.6461 393.404 30.7168 393.404C29.2678 393.404 28.1187 394.523 28.1187 396.222ZM32.6253 396.242C32.6253 397.431 31.8159 398.101 30.9566 398.101C30.1072 398.101 29.2878 397.411 29.2878 396.222C29.2878 395.033 30.1072 394.393 30.9566 394.393C31.8159 394.393 32.6253 395.063 32.6253 396.242ZM37.4867 396.242C37.4867 397.971 38.6059 399.09 40.1847 399.09C41.5337 399.09 42.4131 398.34 42.7228 397.261H41.4938C41.2839 397.831 40.8642 398.131 40.1847 398.131C39.2654 398.131 38.6559 397.451 38.6559 396.242C38.6559 395.043 39.2654 394.363 40.1847 394.363C40.8642 394.363 41.3039 394.703 41.4938 395.233H42.7228C42.4131 394.074 41.5337 393.404 40.1847 393.404C38.6059 393.404 37.4867 394.523 37.4867 396.242ZM48.8444 399V393.494H47.7052V396.562C47.7052 397.571 47.1556 398.091 46.3163 398.091C45.4869 398.091 44.9373 397.571 44.9373 396.562V393.494H43.8081V396.732C43.8081 398.271 44.7874 399.08 46.0764 399.08C46.726 399.08 47.3455 398.81 47.7052 398.34V399H48.8444ZM50.3474 391.605V399H51.4866V391.605H50.3474ZM53.162 392.125V393.494H52.5125V394.423H53.162V397.471C53.162 398.59 53.7716 399 54.7509 399H55.6502V398.051H54.9507C54.4711 398.051 54.3112 397.881 54.3112 397.471V394.423H55.6502V393.494H54.3112V392.125H53.162ZM61.6864 399V393.494H60.5473V396.562C60.5473 397.571 59.9977 398.091 59.1583 398.091C58.3289 398.091 57.7793 397.571 57.7793 396.562V393.494H56.6501V396.732C56.6501 398.271 57.6294 399.08 58.9185 399.08C59.568 399.08 60.1875 398.81 60.5473 398.34V399H61.6864ZM64.3286 396.102C64.3286 394.933 64.8482 394.583 65.6876 394.583H65.9774V393.404C65.1979 393.404 64.6483 393.744 64.3286 394.293V393.494H63.1894V399H64.3286V396.102ZM69.3428 394.363C70.1921 394.363 70.8616 394.903 70.8816 395.752H67.8339C67.9538 394.883 68.5733 394.363 69.3428 394.363ZM71.9208 397.361H70.6918C70.4819 397.791 70.0922 398.131 69.3927 398.131C68.5533 398.131 67.9038 397.581 67.8239 396.672H72.0308C72.0607 396.482 72.0707 396.302 72.0707 396.112C72.0707 394.493 70.9616 393.404 69.3927 393.404C67.7639 393.404 66.6448 394.513 66.6448 396.242C66.6448 397.971 67.8139 399.09 69.3927 399.09C70.7417 399.09 71.6111 398.321 71.9208 397.361ZM78.1757 399.09C79.7545 399.09 81.0336 397.971 81.0336 396.242C81.0336 394.513 79.7945 393.404 78.2257 393.404C76.6568 393.404 75.4178 394.513 75.4178 396.242C75.4178 397.971 76.6069 399.09 78.1757 399.09ZM78.1757 398.101C77.3164 398.101 76.5769 397.491 76.5769 396.242C76.5769 394.993 77.3463 394.393 78.2057 394.393C79.0551 394.393 79.8645 394.993 79.8645 396.242C79.8645 397.491 79.0251 398.101 78.1757 398.101ZM82.2996 393.104V393.494H81.6501V394.423H82.2996V399H83.4488V394.423H84.468V393.494H83.4488V393.104C83.4488 392.475 83.6886 392.235 84.3881 392.235V391.286C82.9491 391.286 82.2996 391.835 82.2996 393.104ZM88.2132 393.104V393.494H87.5637V394.423H88.2132V399H89.3623V394.423H90.3816V393.494H89.3623V393.104C89.3623 392.475 89.6022 392.235 90.3016 392.235V391.286C88.8627 391.286 88.2132 391.835 88.2132 393.104ZM91.3911 393.494V399H92.5303V393.494H91.3911ZM91.9707 392.765C92.3704 392.765 92.6902 392.445 92.6902 392.035C92.6902 391.625 92.3704 391.306 91.9707 391.306C91.561 391.306 91.2412 391.625 91.2412 392.035C91.2412 392.445 91.561 392.765 91.9707 392.765ZM96.0244 399.09C97.3234 399.09 98.1328 398.39 98.1328 397.461C98.0729 395.473 94.9652 396.092 94.9652 394.983C94.9652 394.613 95.285 394.363 95.8945 394.363C96.514 394.363 96.8838 394.693 96.9237 395.173H98.0629C98.0029 394.074 97.1835 393.404 95.9345 393.404C94.6354 393.404 93.8161 394.114 93.8161 394.993C93.8161 397.011 97.0137 396.392 97.0137 397.471C97.0137 397.851 96.6639 398.131 96.0044 398.131C95.3749 398.131 94.9452 397.761 94.9052 397.311H93.7261C93.7761 398.311 94.7054 399.09 96.0244 399.09ZM99.3637 391.605V399H100.503V395.922C100.503 394.913 101.052 394.393 101.892 394.393C102.721 394.393 103.271 394.913 103.271 395.922V399H104.4V395.752C104.4 394.214 103.441 393.404 102.212 393.404C101.502 393.404 100.883 393.674 100.503 394.134V391.605H99.3637ZM105.853 393.494V399H106.992V393.494H105.853ZM106.433 392.765C106.832 392.765 107.152 392.445 107.152 392.035C107.152 391.625 106.832 391.306 106.433 391.306C106.023 391.306 105.703 391.625 105.703 392.035C105.703 392.445 106.023 392.765 106.433 392.765ZM112.395 395.922V399H113.524V395.752C113.524 394.214 112.555 393.404 111.266 393.404C110.606 393.404 109.997 393.674 109.627 394.124V393.494H108.488V399H109.627V395.922C109.627 394.913 110.177 394.393 111.016 394.393C111.845 394.393 112.395 394.913 112.395 395.922ZM117.195 393.404C115.747 393.404 114.597 394.523 114.597 396.222C114.597 397.921 115.747 399.09 117.195 399.09C118.095 399.09 118.754 398.64 119.104 398.171V399.09C119.104 400.189 118.445 400.729 117.565 400.729C116.776 400.729 116.166 400.339 115.996 399.769H114.867C115.007 400.989 116.096 401.718 117.565 401.718C119.284 401.718 120.253 400.589 120.253 399.09V393.494H119.104V394.293C118.764 393.824 118.095 393.404 117.195 393.404ZM119.104 396.242C119.104 397.431 118.295 398.101 117.435 398.101C116.586 398.101 115.767 397.411 115.767 396.222C115.767 395.033 116.586 394.393 117.435 394.393C118.295 394.393 119.104 395.063 119.104 396.242ZM22.4067 409.922V413H23.5358V409.752C23.5358 408.214 22.5566 407.404 21.2675 407.404C20.4681 407.404 19.6887 407.824 19.349 408.493C18.9692 407.774 18.2398 407.404 17.3704 407.404C16.7109 407.404 16.1114 407.674 15.7416 408.124V407.494H14.6025V413H15.7416V409.922C15.7416 408.913 16.2912 408.393 17.1306 408.393C17.96 408.393 18.5096 408.913 18.5096 409.922V413H19.6387V409.922C19.6387 408.913 20.1883 408.393 21.0277 408.393C21.8571 408.393 22.4067 408.913 22.4067 409.922ZM24.6057 410.222C24.6057 411.921 25.7548 413.09 27.1838 413.09C28.1031 413.09 28.7626 412.65 29.1123 412.181V413H30.2615V407.494H29.1123V408.293C28.7726 407.844 28.1331 407.404 27.2037 407.404C25.7548 407.404 24.6057 408.523 24.6057 410.222ZM29.1123 410.242C29.1123 411.431 28.3029 412.101 27.4436 412.101C26.5942 412.101 25.7748 411.411 25.7748 410.222C25.7748 409.033 26.5942 408.393 27.4436 408.393C28.3029 408.393 29.1123 409.063 29.1123 410.242ZM33.7562 413.09C35.0553 413.09 35.8647 412.39 35.8647 411.461C35.8047 409.473 32.697 410.092 32.697 408.983C32.697 408.613 33.0168 408.363 33.6263 408.363C34.2459 408.363 34.6156 408.693 34.6555 409.173H35.7947C35.7347 408.074 34.9154 407.404 33.6663 407.404C32.3672 407.404 31.5479 408.114 31.5479 408.993C31.5479 411.011 34.7455 410.392 34.7455 411.471C34.7455 411.851 34.3957 412.131 33.7362 412.131C33.1067 412.131 32.677 411.761 32.637 411.311H31.4579C31.5079 412.311 32.4372 413.09 33.7562 413.09ZM37.2754 406.125V407.494H36.6259V408.423H37.2754V411.471C37.2754 412.59 37.8849 413 38.8642 413H39.7636V412.051H39.0641C38.5844 412.051 38.4245 411.881 38.4245 411.471V408.423H39.7636V407.494H38.4245V406.125H37.2754ZM43.1318 408.363C43.9811 408.363 44.6506 408.903 44.6706 409.752H41.6229C41.7428 408.883 42.3623 408.363 43.1318 408.363ZM45.7098 411.361H44.4808C44.2709 411.791 43.8812 412.131 43.1817 412.131C42.3423 412.131 41.6928 411.581 41.6129 410.672H45.8198C45.8497 410.482 45.8597 410.302 45.8597 410.112C45.8597 408.493 44.7506 407.404 43.1817 407.404C41.5529 407.404 40.4338 408.513 40.4338 410.242C40.4338 411.971 41.6029 413.09 43.1817 413.09C44.5307 413.09 45.4001 412.321 45.7098 411.361ZM48.1199 410.102C48.1199 408.933 48.6395 408.583 49.4789 408.583H49.7687V407.404C48.9893 407.404 48.4397 407.744 48.1199 408.293V407.494H46.9808V413H48.1199V410.102ZM53.0318 409.513C53.0318 411.601 54.6206 413.06 56.5792 413.06C58.0281 413.06 59.2772 412.34 59.8068 410.981H58.4378C58.0681 411.721 57.4086 412.071 56.5792 412.071C55.2002 412.071 54.201 411.081 54.201 409.513C54.201 407.944 55.2002 406.964 56.5792 406.964C57.4086 406.964 58.0681 407.314 58.4378 408.054H59.8068C59.2772 406.695 58.0281 405.965 56.5792 405.965C54.6206 405.965 53.0318 407.434 53.0318 409.513ZM63.5284 413.09C65.1072 413.09 66.3863 411.971 66.3863 410.242C66.3863 408.513 65.1472 407.404 63.5784 407.404C62.0095 407.404 60.7704 408.513 60.7704 410.242C60.7704 411.971 61.9596 413.09 63.5284 413.09ZM63.5284 412.101C62.669 412.101 61.9296 411.491 61.9296 410.242C61.9296 408.993 62.699 408.393 63.5584 408.393C64.4077 408.393 65.2171 408.993 65.2171 410.242C65.2171 411.491 64.3778 412.101 63.5284 412.101ZM75.3166 409.922V413H76.4458V409.752C76.4458 408.214 75.4665 407.404 74.1774 407.404C73.378 407.404 72.5986 407.824 72.2589 408.493C71.8791 407.774 71.1497 407.404 70.2803 407.404C69.6208 407.404 69.0213 407.674 68.6515 408.124V407.494H67.5124V413H68.6515V409.922C68.6515 408.913 69.2011 408.393 70.0405 408.393C70.8699 408.393 71.4195 408.913 71.4195 409.922V413H72.5486V409.922C72.5486 408.913 73.0982 408.393 73.9376 408.393C74.767 408.393 75.3166 408.913 75.3166 409.922ZM85.6995 409.922V413H86.8287V409.752C86.8287 408.214 85.8494 407.404 84.5604 407.404C83.7609 407.404 82.9815 407.824 82.6418 408.493C82.2621 407.774 81.5326 407.404 80.6632 407.404C80.0037 407.404 79.4042 407.674 79.0345 408.124V407.494H77.8953V413H79.0345V409.922C79.0345 408.913 79.584 408.393 80.4234 408.393C81.2528 408.393 81.8024 408.913 81.8024 409.922V413H82.9316V409.922C82.9316 408.913 83.4812 408.393 84.3205 408.393C85.1499 408.393 85.6995 408.913 85.6995 409.922ZM93.2645 413V407.494H92.1254V410.562C92.1254 411.571 91.5758 412.091 90.7364 412.091C89.907 412.091 89.3574 411.571 89.3574 410.562V407.494H88.2283V410.732C88.2283 412.271 89.2075 413.08 90.4966 413.08C91.1461 413.08 91.7656 412.81 92.1254 412.34V413H93.2645ZM98.6746 409.922V413H99.8038V409.752C99.8038 408.214 98.8345 407.404 97.5455 407.404C96.886 407.404 96.2764 407.674 95.9067 408.124V407.494H94.7675V413H95.9067V409.922C95.9067 408.913 96.4563 408.393 97.2957 408.393C98.125 408.393 98.6746 408.913 98.6746 409.922ZM101.257 407.494V413H102.396V407.494H101.257ZM101.836 406.765C102.236 406.765 102.556 406.445 102.556 406.035C102.556 405.625 102.236 405.306 101.836 405.306C101.427 405.306 101.107 405.625 101.107 406.035C101.107 406.445 101.427 406.765 101.836 406.765ZM104.071 406.125V407.494H103.422V408.423H104.071V411.471C104.071 412.59 104.681 413 105.66 413H106.56V412.051H105.86C105.381 412.051 105.221 411.881 105.221 411.471V408.423H106.56V407.494H105.221V406.125H104.071ZM107.61 407.494V413H108.749V407.494H107.61ZM108.189 406.765C108.589 406.765 108.909 406.445 108.909 406.035C108.909 405.625 108.589 405.306 108.189 405.306C107.779 405.306 107.46 405.625 107.46 406.035C107.46 406.445 107.779 406.765 108.189 406.765ZM112.563 408.363C113.412 408.363 114.081 408.903 114.101 409.752H111.054C111.174 408.883 111.793 408.363 112.563 408.363ZM115.141 411.361H113.912C113.702 411.791 113.312 412.131 112.613 412.131C111.773 412.131 111.124 411.581 111.044 410.672H115.251C115.281 410.482 115.291 410.302 115.291 410.112C115.291 408.493 114.181 407.404 112.613 407.404C110.984 407.404 109.865 408.513 109.865 410.242C109.865 411.971 111.034 413.09 112.613 413.09C113.962 413.09 114.831 412.321 115.141 411.361ZM118.41 413.09C119.709 413.09 120.519 412.39 120.519 411.461C120.459 409.473 117.351 410.092 117.351 408.983C117.351 408.613 117.671 408.363 118.28 408.363C118.9 408.363 119.269 408.693 119.309 409.173H120.449C120.389 408.074 119.569 407.404 118.32 407.404C117.021 407.404 116.202 408.114 116.202 408.993C116.202 411.011 119.399 410.392 119.399 411.471C119.399 411.851 119.05 412.131 118.39 412.131C117.761 412.131 117.331 411.761 117.291 411.311H116.112C116.162 412.311 117.091 413.09 118.41 413.09Z" fill="white"/>
<defs>
<filter id="filter0_d_262_162" x="80.5477" y="0.499317" width="90.4328" height="90.433" filterUnits="userSpaceOnUse" color-interpolation-filters="sRGB">
<feFlood flood-opacity="0" result="BackgroundImageFix"/>
<feColorMatrix in="SourceAlpha" type="matrix" values="0 0 0 0 0 0 0 0 0 0 0 0 0 0 0 0 0 0 127 0" result="hardAlpha"/>
<feOffset/>
<feGaussianBlur stdDeviation="2.49814"/>
<feComposite in2="hardAlpha" operator="out"/>
<feColorMatrix type="matrix" values="0 0 0 0 0 0 0 0 0 0 0 0 0 0 0 0 0 0 0.25 0"/>
<feBlend mode="normal" in2="BackgroundImageFix" result="effect1_dropShadow_262_162"/>
<feBlend mode="normal" in="SourceGraphic" in2="effect1_dropShadow_262_162" result="shape"/>
</filter>
<filter id="filter1_d_262_162" x="160.988" y="109.418" width="90.4328" height="90.433" filterUnits="userSpaceOnUse" color-interpolation-filters="sRGB">
<feFlood flood-opacity="0" result="BackgroundImageFix"/>
<feColorMatrix in="SourceAlpha" type="matrix" values="0 0 0 0 0 0 0 0 0 0 0 0 0 0 0 0 0 0 127 0" result="hardAlpha"/>
<feOffset/>
<feGaussianBlur stdDeviation="2.49814"/>
<feComposite in2="hardAlpha" operator="out"/>
<feColorMatrix type="matrix" values="0 0 0 0 0 0 0 0 0 0 0 0 0 0 0 0 0 0 0.25 0"/>
<feBlend mode="normal" in2="BackgroundImageFix" result="effect1_dropShadow_262_162"/>
<feBlend mode="normal" in="SourceGraphic" in2="effect1_dropShadow_262_162" result="shape"/>
</filter>
<filter id="filter2_d_262_162" x="80.5477" y="219.337" width="90.4328" height="90.433" filterUnits="userSpaceOnUse" color-interpolation-filters="sRGB">
<feFlood flood-opacity="0" result="BackgroundImageFix"/>
<feColorMatrix in="SourceAlpha" type="matrix" values="0 0 0 0 0 0 0 0 0 0 0 0 0 0 0 0 0 0 127 0" result="hardAlpha"/>
<feOffset/>
<feGaussianBlur stdDeviation="2.49814"/>
<feComposite in2="hardAlpha" operator="out"/>
<feColorMatrix type="matrix" values="0 0 0 0 0 0 0 0 0 0 0 0 0 0 0 0 0 0 0.25 0"/>
<feBlend mode="normal" in2="BackgroundImageFix" result="effect1_dropShadow_262_162"/>
<feBlend mode="normal" in="SourceGraphic" in2="effect1_dropShadow_262_162" result="shape"/>
</filter>
<filter id="filter3_d_262_162" x="160.988" y="330.254" width="90.4328" height="90.433" filterUnits="userSpaceOnUse" color-interpolation-filters="sRGB">
<feFlood flood-opacity="0" result="BackgroundImageFix"/>
<feColorMatrix in="SourceAlpha" type="matrix" values="0 0 0 0 0 0 0 0 0 0 0 0 0 0 0 0 0 0 127 0" result="hardAlpha"/>
<feOffset/>
<feGaussianBlur stdDeviation="2.49814"/>
<feComposite in2="hardAlpha" operator="out"/>
<feColorMatrix type="matrix" values="0 0 0 0 0 0 0 0 0 0 0 0 0 0 0 0 0 0 0.25 0"/>
<feBlend mode="normal" in2="BackgroundImageFix" result="effect1_dropShadow_262_162"/>
<feBlend mode="normal" in="SourceGraphic" in2="effect1_dropShadow_262_162" result="shape"/>
</filter>
<linearGradient id="paint0_linear_262_162" x1="108.81" y1="33.481" x2="126.493" y2="68.1941" gradientUnits="userSpaceOnUse">
<stop stop-color="#9E00FF"/>
<stop offset="1" stop-color="#00F0FF"/>
</linearGradient>
<linearGradient id="paint1_linear_262_162" x1="190.146" y1="142.398" x2="208.078" y2="176.762" gradientUnits="userSpaceOnUse">
<stop stop-color="#9E00FF"/>
<stop offset="1" stop-color="#00F0FF"/>
</linearGradient>
<linearGradient id="paint2_linear_262_162" x1="110.499" y1="252.318" x2="128.935" y2="285.925" gradientUnits="userSpaceOnUse">
<stop stop-color="#9E00FF"/>
<stop offset="1" stop-color="#00F0FF"/>
</linearGradient>
<linearGradient id="paint3_linear_262_162" x1="190.646" y1="362.736" x2="208.578" y2="397.099" gradientUnits="userSpaceOnUse">
<stop stop-color="#9E00FF"/>
<stop offset="1" stop-color="#00F0FF"/>
</linearGradient>
</defs>
</svg>
